<svg width="2285" height="1622" xmlns="http://www.w3.org/2000/svg" xmlns:xlink="http://www.w3.org/1999/xlink" xml:space="preserve" overflow="hidden"><defs><clipPath id="clip0"><rect x="1375" y="732" width="2285" height="1622"/></clipPath></defs><g clip-path="url(#clip0)" transform="translate(-1375 -732)"><g><path d="M1748.5 1673.56 3536.5 1673.56M1748.5 1547.55 3536.5 1547.55M1748.5 1421.55 3536.5 1421.55M1748.5 1295.54 3536.5 1295.54M1748.5 1169.54 3536.5 1169.54M1748.5 1043.53 3536.5 1043.53M1748.5 917.53 3536.5 917.53M1748.5 791.5 3536.5 791.5" stroke="#A6A6A6" stroke-width="3.4375" stroke-linejoin="round" stroke-miterlimit="10" fill="none"/></g><g><path d="M2003.57 791.5 2003.57 1800.5M2259.57 791.5 2259.57 1800.5M2514.58 791.5 2514.58 1800.5M2770.59 791.5 2770.59 1800.5M3025.6 791.5 3025.6 1800.5M3281.61 791.5 3281.61 1800.5M3536.5 791.5 3536.5 1800.5" stroke="#A6A6A6" stroke-width="3.4375" stroke-linejoin="round" stroke-miterlimit="10" fill="none"/></g><g><path d="M0 0 0.000360892 1009" stroke="#BFBFBF" stroke-width="3.4375" stroke-linejoin="round" stroke-miterlimit="10" fill="none" fill-rule="evenodd" transform="matrix(1 0 0 -1 1748.5 1800.5)"/></g><g><path d="M1748.5 1800.5 3536.5 1800.5" stroke="#BFBFBF" stroke-width="3.4375" stroke-linejoin="round" stroke-miterlimit="10" fill="none" fill-rule="evenodd"/></g><g><path d="M1931 1424.5C1931 1383.91 1963.68 1351 2004 1351 2044.32 1351 2077 1383.91 2077 1424.5 2077 1465.09 2044.32 1498 2004 1498 1963.68 1498 1931 1465.09 1931 1424.5Z" fill="#F0AA93" fill-rule="evenodd"/></g><g><path d="M2776 1550.5C2776 1464.62 2845.4 1395 2931 1395 3016.6 1395 3086 1464.62 3086 1550.5 3086 1636.38 3016.6 1706 2931 1706 2845.4 1706 2776 1636.38 2776 1550.5Z" fill="#F9E4A5" fill-rule="evenodd"/></g><g><path d="M2603 1593.5C2603 1515.35 2666.35 1452 2744.5 1452 2822.65 1452 2886 1515.35 2886 1593.5 2886 1671.65 2822.65 1735 2744.5 1735 2666.35 1735 2603 1671.65 2603 1593.5Z" fill="#7F7F7F" fill-rule="evenodd"/></g><g><path d="M2870 1218C2870 1164.43 2913.43 1121 2967 1121 3020.57 1121 3064 1164.43 3064 1218 3064 1271.57 3020.57 1315 2967 1315 2913.43 1315 2870 1271.57 2870 1218Z" fill="#D4F4F1" fill-rule="evenodd"/></g><g><path d="M3089 1361.5C3089 1317.59 3124.59 1282 3168.5 1282 3212.41 1282 3248 1317.59 3248 1361.5 3248 1405.41 3212.41 1441 3168.5 1441 3124.59 1441 3089 1405.41 3089 1361.5Z" fill="#C8E5B3" fill-rule="evenodd"/></g><g><path d="M2832 1074C2832 1032.03 2866.03 998 2908 998 2949.97 998 2984 1032.03 2984 1074 2984 1115.97 2949.97 1150 2908 1150 2866.03 1150 2832 1115.97 2832 1074Z" fill="#7E91C8" fill-rule="evenodd"/></g><g><path d="M2776 1066.5C2776 1031.98 2804.21 1004 2839 1004 2873.79 1004 2902 1031.98 2902 1066.5 2902 1101.02 2873.79 1129 2839 1129 2804.21 1129 2776 1101.02 2776 1066.5Z" fill="#DAE3F5" fill-rule="evenodd"/></g><g><path d="M3265 928C3265 903.7 3284.7 884 3309 884 3333.3 884 3353 903.7 3353 928 3353 952.301 3333.3 972 3309 972 3284.7 972 3265 952.301 3265 928Z" fill="#EC97A5" fill-rule="evenodd"/></g><g><text fill="#595959" font-family="Calibri,Calibri_MSFontService,sans-serif" font-weight="400" font-size="60" transform="matrix(1 0 0 1 1587.6 1817)">79.5</text></g><g><text fill="#595959" font-family="Calibri,Calibri_MSFontService,sans-serif" font-weight="400" font-size="60" transform="matrix(1 0 0 1 1632.84 1691)">80</text></g><g><text fill="#595959" font-family="Calibri,Calibri_MSFontService,sans-serif" font-weight="400" font-size="60" transform="matrix(1 0 0 1 1587.6 1565)">80.5</text></g><g><text fill="#595959" font-family="Calibri,Calibri_MSFontService,sans-serif" font-weight="400" font-size="60" transform="matrix(1 0 0 1 1632.84 1439)">81</text></g><g><text fill="#595959" font-family="Calibri,Calibri_MSFontService,sans-serif" font-weight="400" font-size="60" transform="matrix(1 0 0 1 1587.6 1313)">81.5</text></g><g><text fill="#595959" font-family="Calibri,Calibri_MSFontService,sans-serif" font-weight="400" font-size="60" transform="matrix(1 0 0 1 1632.84 1187)">82</text></g><g><text fill="#595959" font-family="Calibri,Calibri_MSFontService,sans-serif" font-weight="400" font-size="60" transform="matrix(1 0 0 1 1587.6 1061)">82.5</text></g><g><text fill="#595959" font-family="Calibri,Calibri_MSFontService,sans-serif" font-weight="400" font-size="60" transform="matrix(1 0 0 1 1632.84 935)">83</text></g><g><text fill="#595959" font-family="Calibri,Calibri_MSFontService,sans-serif" font-weight="400" font-size="60" transform="matrix(1 0 0 1 1587.6 809)">83.5</text></g><g><text fill="#595959" font-family="Calibri,Calibri_MSFontService,sans-serif" font-weight="400" font-size="60" transform="matrix(1 0 0 1 1718.32 1895)">77</text></g><g><text fill="#595959" font-family="Calibri,Calibri_MSFontService,sans-serif" font-weight="400" font-size="60" transform="matrix(1 0 0 1 1973.76 1895)">78</text></g><g><text fill="#595959" font-family="Calibri,Calibri_MSFontService,sans-serif" font-weight="400" font-size="60" transform="matrix(1 0 0 1 2229.2 1895)">79</text></g><g><text fill="#595959" font-family="Calibri,Calibri_MSFontService,sans-serif" font-weight="400" font-size="60" transform="matrix(1 0 0 1 2484.63 1895)">80</text></g><g><text fill="#595959" font-family="Calibri,Calibri_MSFontService,sans-serif" font-weight="400" font-size="60" transform="matrix(1 0 0 1 2740.07 1895)">81</text></g><g><text fill="#595959" font-family="Calibri,Calibri_MSFontService,sans-serif" font-weight="400" font-size="60" transform="matrix(1 0 0 1 2995.51 1895)">82</text></g><g><text fill="#595959" font-family="Calibri,Calibri_MSFontService,sans-serif" font-weight="400" font-size="60" transform="matrix(1 0 0 1 3250.95 1895)">83</text></g><g><text fill="#595959" font-family="Calibri,Calibri_MSFontService,sans-serif" font-weight="400" font-size="60" transform="matrix(1 0 0 1 3506.38 1895)">84</text></g><g><text fill="#595959" font-family="Calibri,Calibri_MSFontService,sans-serif" font-weight="400" font-size="83" transform="matrix(6.12323e-17 -1 1 6.12323e-17 1536.29 1448)">F1</text></g><g><text fill="#595959" font-family="Microsoft YaHei,Microsoft YaHei_MSFontService,sans-serif" font-weight="400" font-size="83" transform="matrix(6.12323e-17 -1 1 6.12323e-17 1536.29 1368)">（</text></g><g><text fill="#595959" font-family="Calibri,Calibri_MSFontService,sans-serif" font-weight="400" font-size="83" transform="matrix(6.12323e-17 -1 1 6.12323e-17 1536.29 1285)">%</text></g><g><text fill="#595959" font-family="Microsoft YaHei,Microsoft YaHei_MSFontService,sans-serif" font-weight="400" font-size="83" transform="matrix(6.12323e-17 -1 1 6.12323e-17 1536.29 1226)">）</text></g><g><text fill="#595959" font-family="Calibri,Calibri_MSFontService,sans-serif" font-weight="400" font-size="83" transform="matrix(1 0 0 1 2491.1 2028)">Se</text></g><g><g><text fill="#595959" font-family="Microsoft YaHei,Microsoft YaHei_MSFontService,sans-serif" font-weight="400" font-size="83" transform="matrix(1 0 0 1 2570.05 2028)">（</text></g></g><g><text fill="#595959" font-family="Calibri,Calibri_MSFontService,sans-serif" font-weight="400" font-size="83" transform="matrix(1 0 0 1 2652.55 2028)">%</text></g><g><g><text fill="#595959" font-family="Microsoft YaHei,Microsoft YaHei_MSFontService,sans-serif" font-weight="400" font-size="83" transform="matrix(1 0 0 1 2711.51 2028)">）</text></g></g><path d="M2072.5 1225.33C2072.5 1216.59 2079.59 1209.5 2088.33 1209.5L2107 1209.5 2107 1209.5 2158.75 1209.5 2263.67 1209.5C2272.41 1209.5 2279.5 1216.59 2279.5 1225.33L2279.5 1264.92 2279.5 1264.92 2279.5 1288.67 2279.5 1288.67C2279.5 1297.41 2272.41 1304.5 2263.67 1304.5L2158.75 1304.5 2027.26 1391.83 2107 1304.5 2088.33 1304.5C2079.59 1304.5 2072.5 1297.41 2072.5 1288.67L2072.5 1288.67 2072.5 1264.92 2072.5 1264.92Z" stroke="#BFBFBF" stroke-width="4.58333" stroke-miterlimit="8" fill="none" fill-rule="evenodd"/><text fill="#0D0D0D" font-family="Calibri,Calibri_MSFontService,sans-serif" font-weight="400" font-size="46" transform="matrix(1 0 0 1 2115.25 1272)">7.78M</text><path d="M2657.5 899.667C2657.5 891.843 2663.84 885.5 2671.67 885.5L2773 885.5 2773 885.5 2822.5 885.5 2841.33 885.5C2849.16 885.5 2855.5 891.843 2855.5 899.667L2855.5 935.083 2855.5 935.083 2855.5 956.333 2855.5 956.333C2855.5 964.157 2849.16 970.5 2841.33 970.5L2822.5 970.5 2835.5 1058.8 2773 970.5 2671.67 970.5C2663.84 970.5 2657.5 964.157 2657.5 956.333L2657.5 956.333 2657.5 935.083 2657.5 935.083Z" stroke="#BFBFBF" stroke-width="4.58333" stroke-miterlimit="8" fill="none" fill-rule="evenodd"/><text fill="#0D0D0D" font-family="Calibri,Calibri_MSFontService,sans-serif" font-weight="400" font-size="46" transform="matrix(1 0 0 1 2695.31 943)">5.7</text><text fill="#0D0D0D" font-family="Calibri,Calibri_MSFontService,sans-serif" font-weight="400" font-size="46" transform="matrix(1 0 0 1 2753.75 943)">2</text><text fill="#0D0D0D" font-family="Calibri,Calibri_MSFontService,sans-serif" font-weight="400" font-size="46" transform="matrix(1 0 0 1 2777.24 943)">M</text><path d="M3023.5 1065.67C3023.5 1057.84 3029.84 1051.5 3037.67 1051.5L3058.5 1051.5 3058.5 1051.5 3111 1051.5 3219.33 1051.5C3227.16 1051.5 3233.5 1057.84 3233.5 1065.67L3233.5 1101.08 3233.5 1101.08 3233.5 1122.33 3233.5 1122.33C3233.5 1130.16 3227.16 1136.5 3219.33 1136.5L3111 1136.5 3009.59 1191.8 3058.5 1136.5 3037.67 1136.5C3029.84 1136.5 3023.5 1130.16 3023.5 1122.33L3023.5 1122.33 3023.5 1101.08 3023.5 1101.08Z" stroke="#BFBFBF" stroke-width="4.58333" stroke-miterlimit="8" fill="none" fill-rule="evenodd"/><text fill="#0D0D0D" font-family="Calibri,Calibri_MSFontService,sans-serif" font-weight="400" font-size="46" transform="matrix(1 0 0 1 3067.84 1109)">13.</text><text fill="#0D0D0D" font-family="Calibri,Calibri_MSFontService,sans-serif" font-weight="400" font-size="46" transform="matrix(1 0 0 1 3126.28 1109)">6</text><text fill="#0D0D0D" font-family="Calibri,Calibri_MSFontService,sans-serif" font-weight="400" font-size="46" transform="matrix(1 0 0 1 3149.77 1109)">M</text><path d="M3060.5 1638.83C3060.5 1630.37 3067.36 1623.5 3075.83 1623.5L3099 1623.5 3035.68 1511.64 3156.75 1623.5 3276.17 1623.5C3284.64 1623.5 3291.5 1630.37 3291.5 1638.83L3291.5 1638.83 3291.5 1638.83 3291.5 1661.83 3291.5 1700.17C3291.5 1708.64 3284.64 1715.5 3276.17 1715.5L3156.75 1715.5 3099 1715.5 3099 1715.5 3075.83 1715.5C3067.36 1715.5 3060.5 1708.64 3060.5 1700.17L3060.5 1661.83 3060.5 1638.83 3060.5 1638.83Z" stroke="#BFBFBF" stroke-width="4.58333" stroke-miterlimit="8" fill="none" fill-rule="evenodd"/><text fill="#0D0D0D" font-family="Calibri,Calibri_MSFontService,sans-serif" font-weight="400" font-size="46" transform="matrix(1 0 0 1 3103.1 1685)">34.8</text><text fill="#0D0D0D" font-family="Calibri,Calibri_MSFontService,sans-serif" font-weight="400" font-size="46" transform="matrix(1 0 0 1 3185.03 1685)">8</text><text fill="#0D0D0D" font-family="Calibri,Calibri_MSFontService,sans-serif" font-weight="400" font-size="46" transform="matrix(1 0 0 1 3208.52 1685)">M</text><path d="M2972.5 883.667C2972.5 874.738 2979.74 867.5 2988.67 867.5L3001.67 867.5 3001.67 867.5 3045.42 867.5 3131.33 867.5C3140.26 867.5 3147.5 874.738 3147.5 883.667L3147.5 924.083 3147.5 924.083 3147.5 948.333 3147.5 948.333C3147.5 957.262 3140.26 964.5 3131.33 964.5L3045.42 964.5 2931.78 1054.22 3001.67 964.5 2988.67 964.5C2979.74 964.5 2972.5 957.262 2972.5 948.333L2972.5 948.333 2972.5 924.083 2972.5 924.083Z" stroke="#BFBFBF" stroke-width="4.58333" stroke-miterlimit="8" fill="none" fill-rule="evenodd"/><text fill="#0D0D0D" font-family="Calibri,Calibri_MSFontService,sans-serif" font-weight="400" font-size="46" transform="matrix(1 0 0 1 3010.84 931)">8.</text><text fill="#0D0D0D" font-family="Calibri,Calibri_MSFontService,sans-serif" font-weight="400" font-size="46" transform="matrix(1 0 0 1 3045.78 931)">4</text><text fill="#0D0D0D" font-family="Calibri,Calibri_MSFontService,sans-serif" font-weight="400" font-size="46" transform="matrix(1 0 0 1 3069.27 931)">M</text><path d="M2515.5 1351C2515.5 1342.44 2522.44 1335.5 2531 1335.5L2615.83 1335.5 2615.83 1335.5 2658.83 1335.5 2672 1335.5C2680.56 1335.5 2687.5 1342.44 2687.5 1351L2687.5 1389.75 2687.5 1389.75 2687.5 1413 2687.5 1413C2687.5 1421.56 2680.56 1428.5 2672 1428.5L2658.83 1428.5 2688.13 1534.1 2615.83 1428.5 2531 1428.5C2522.44 1428.5 2515.5 1421.56 2515.5 1413L2515.5 1413 2515.5 1389.75 2515.5 1389.75Z" stroke="#BFBFBF" stroke-width="4.58333" stroke-miterlimit="8" fill="none" fill-rule="evenodd"/><text fill="#0D0D0D" font-family="Calibri,Calibri_MSFontService,sans-serif" font-weight="400" font-size="46" transform="matrix(1 0 0 1 2558.34 1397)">2</text><text fill="#0D0D0D" font-family="Calibri,Calibri_MSFontService,sans-serif" font-weight="400" font-size="46" transform="matrix(1 0 0 1 2581.83 1397)">9</text><text fill="#0D0D0D" font-family="Calibri,Calibri_MSFontService,sans-serif" font-weight="400" font-size="46" transform="matrix(1 0 0 1 2605.32 1397)">M</text><path d="M3207.5 1470C3207.5 1461.99 3213.99 1455.5 3222 1455.5L3242.67 1455.5 3184.83 1349.72 3295.42 1455.5 3404 1455.5C3412.01 1455.5 3418.5 1461.99 3418.5 1470L3418.5 1470 3418.5 1470 3418.5 1491.75 3418.5 1528C3418.5 1536.01 3412.01 1542.5 3404 1542.5L3295.42 1542.5 3242.67 1542.5 3242.67 1542.5 3222 1542.5C3213.99 1542.5 3207.5 1536.01 3207.5 1528L3207.5 1491.75 3207.5 1470 3207.5 1470Z" stroke="#BFBFBF" stroke-width="4.58333" stroke-miterlimit="8" fill="none" fill-rule="evenodd"/><text fill="#0D0D0D" font-family="Calibri,Calibri_MSFontService,sans-serif" font-weight="400" font-size="46" transform="matrix(1 0 0 1 3251.71 1514)">9.1</text><text fill="#0D0D0D" font-family="Calibri,Calibri_MSFontService,sans-serif" font-weight="400" font-size="46" transform="matrix(1 0 0 1 3310.15 1514)">6</text><text fill="#0D0D0D" font-family="Calibri,Calibri_MSFontService,sans-serif" font-weight="400" font-size="46" transform="matrix(1 0 0 1 3333.64 1514)">M</text><path d="M3312.5 1064C3312.5 1055.99 3318.99 1049.5 3327 1049.5L3347.67 1049.5 3305.18 961.628 3400.42 1049.5 3509 1049.5C3517.01 1049.5 3523.5 1055.99 3523.5 1064L3523.5 1064 3523.5 1064 3523.5 1085.75 3523.5 1122C3523.5 1130.01 3517.01 1136.5 3509 1136.5L3400.42 1136.5 3347.67 1136.5 3347.67 1136.5 3327 1136.5C3318.99 1136.5 3312.5 1130.01 3312.5 1122L3312.5 1085.75 3312.5 1064 3312.5 1064Z" stroke="#BFBFBF" stroke-width="4.58333" stroke-miterlimit="8" fill="none" fill-rule="evenodd"/><text fill="#0D0D0D" font-family="Calibri,Calibri_MSFontService,sans-serif" font-weight="400" font-size="46" transform="matrix(1 0 0 1 3357.23 1108)">2.7</text><text fill="#0D0D0D" font-family="Calibri,Calibri_MSFontService,sans-serif" font-weight="400" font-size="46" transform="matrix(1 0 0 1 3415.67 1108)">8</text><text fill="#0D0D0D" font-family="Calibri,Calibri_MSFontService,sans-serif" font-weight="400" font-size="46" transform="matrix(1 0 0 1 3439.16 1108)">M</text><path d="M1670 2102C1670 2087.09 1682.09 2075 1697 2075 1711.91 2075 1724 2087.09 1724 2102 1724 2116.91 1711.91 2129 1697 2129 1682.09 2129 1670 2116.91 1670 2102Z" fill="#F0AA93" fill-rule="evenodd"/><path d="M2992 2272C2992 2257.09 3004.09 2245 3019 2245 3033.91 2245 3046 2257.09 3046 2272 3046 2286.91 3033.91 2299 3019 2299 3004.09 2299 2992 2286.91 2992 2272Z" fill="#EC97A5" fill-rule="evenodd"/><path d="M2515 2274C2515 2259.09 2527.09 2247 2542 2247 2556.91 2247 2569 2259.09 2569 2274 2569 2288.91 2556.91 2301 2542 2301 2527.09 2301 2515 2288.91 2515 2274Z" fill="#DAE3F5" fill-rule="evenodd"/><path d="M2072 2274C2072 2259.09 2084.31 2247 2099.5 2247 2114.69 2247 2127 2259.09 2127 2274 2127 2288.91 2114.69 2301 2099.5 2301 2084.31 2301 2072 2288.91 2072 2274Z" fill="#7E91C8" fill-rule="evenodd"/><path d="M1659 2275C1659 2260.09 1671.31 2248 1686.5 2248 1701.69 2248 1714 2260.09 1714 2275 1714 2289.91 1701.69 2302 1686.5 2302 1671.31 2302 1659 2289.91 1659 2275Z" fill="#D4F4F1" fill-rule="evenodd"/><path d="M2992 2113C2992 2098.09 3004.09 2086 3019 2086 3033.91 2086 3046 2098.09 3046 2113 3046 2127.91 3033.91 2140 3019 2140 3004.09 2140 2992 2127.91 2992 2113Z" fill="#C8E5B3" fill-rule="evenodd"/><path d="M2515 2102C2515 2087.09 2527.09 2075 2542 2075 2556.91 2075 2569 2087.09 2569 2102 2569 2116.91 2556.91 2129 2542 2129 2527.09 2129 2515 2116.91 2515 2102Z" fill="#F9E4A5" fill-rule="evenodd"/><path d="M2072 2102C2072 2087.09 2084.31 2075 2099.5 2075 2114.69 2075 2127 2087.09 2127 2102 2127 2116.91 2114.69 2129 2099.5 2129 2084.31 2129 2072 2116.91 2072 2102Z" fill="#7F7F7F" fill-rule="evenodd"/><text font-family="Calibri,Calibri_MSFontService,sans-serif" font-weight="400" font-size="69" transform="matrix(1 0 0 1 1793.87 2125)">U</text><text font-family="Calibri,Calibri_MSFontService,sans-serif" font-weight="400" font-size="69" transform="matrix(1 0 0 1 1837.98 2125)">-</text><text font-family="Calibri,Calibri_MSFontService,sans-serif" font-weight="400" font-size="69" transform="matrix(1 0 0 1 1859.18 2125)">Net</text><text font-family="Calibri,Calibri_MSFontService,sans-serif" font-weight="400" font-size="69" transform="matrix(1 0 0 1 2639.12 2124)">AttU</text><text font-family="Calibri,Calibri_MSFontService,sans-serif" font-weight="400" font-size="69" transform="matrix(1 0 0 1 2765.89 2124)">-</text><text font-family="Calibri,Calibri_MSFontService,sans-serif" font-weight="400" font-size="69" transform="matrix(1 0 0 1 2787.09 2124)">Net</text><text font-family="Calibri,Calibri_MSFontService,sans-serif" font-weight="400" font-size="69" transform="matrix(1 0 0 1 2197.85 2128)">CE</text><text font-family="Calibri,Calibri_MSFontService,sans-serif" font-weight="400" font-size="69" transform="matrix(1 0 0 1 2268.32 2128)">-</text><text font-family="Calibri,Calibri_MSFontService,sans-serif" font-weight="400" font-size="69" transform="matrix(1 0 0 1 2289.51 2128)">Net</text><text font-family="Calibri,Calibri_MSFontService,sans-serif" font-weight="400" font-size="69" transform="matrix(1 0 0 1 1775.74 2294)">Iter</text><text font-family="Calibri,Calibri_MSFontService,sans-serif" font-weight="400" font-size="69" transform="matrix(1 0 0 1 1873.55 2294)">-</text><text font-family="Calibri,Calibri_MSFontService,sans-serif" font-weight="400" font-size="69" transform="matrix(1 0 0 1 1894.75 2294)">Net</text><text font-family="Calibri,Calibri_MSFontService,sans-serif" font-weight="400" font-size="69" transform="matrix(1 0 0 1 3116.85 2128)">U</text><text font-family="Calibri,Calibri_MSFontService,sans-serif" font-weight="400" font-size="69" transform="matrix(1 0 0 1 3160.96 2128)">-</text><text font-family="Calibri,Calibri_MSFontService,sans-serif" font-weight="400" font-size="69" transform="matrix(1 0 0 1 3182.16 2128)">Net++</text><text font-family="Calibri,Calibri_MSFontService,sans-serif" font-weight="400" font-size="69" transform="matrix(1 0 0 1 2168.98 2294)">CS</text><text font-family="Calibri,Calibri_MSFontService,sans-serif" font-weight="400" font-size="46" transform="matrix(1 0 0 1 2237.16 2273)">2</text><text font-family="Calibri,Calibri_MSFontService,sans-serif" font-weight="400" font-size="69" transform="matrix(1 0 0 1 2260.65 2294)">-</text><text font-family="Calibri,Calibri_MSFontService,sans-serif" font-weight="400" font-size="69" transform="matrix(1 0 0 1 2281.85 2294)">Unet</text><text font-family="Calibri,Calibri_MSFontService,sans-serif" font-weight="400" font-size="69" transform="matrix(1 0 0 1 2634.31 2294)">FR</text><text font-family="Calibri,Calibri_MSFontService,sans-serif" font-weight="400" font-size="69" transform="matrix(1 0 0 1 2703.06 2294)">-</text><text font-family="Calibri,Calibri_MSFontService,sans-serif" font-weight="400" font-size="69" transform="matrix(1 0 0 1 2724.26 2294)">Unet</text><text font-family="Calibri,Calibri_MSFontService,sans-serif" font-weight="400" font-size="69" transform="matrix(1 0 0 1 3115.56 2291)">FRD</text><text font-family="Calibri,Calibri_MSFontService,sans-serif" font-weight="400" font-size="69" transform="matrix(1 0 0 1 3226.7 2291)">-</text><text font-family="Calibri,Calibri_MSFontService,sans-serif" font-weight="400" font-size="69" transform="matrix(1 0 0 1 3247.9 2291)">Net</text><text font-family="DengXian,DengXian_MSFontService,sans-serif" font-weight="400" font-size="69" transform="matrix(1 0 0 1 3348.94 2291)">（</text><text font-family="Calibri,Calibri_MSFontService,sans-serif" font-weight="400" font-size="69" transform="matrix(1 0 0 1 3417.69 2291)">Ours</text><text font-family="DengXian,DengXian_MSFontService,sans-serif" font-weight="400" font-size="69" transform="matrix(1 0 0 1 3548.87 2291)">）</text></g></svg>