<svg width="13304" height="4970" xmlns="http://www.w3.org/2000/svg" xmlns:xlink="http://www.w3.org/1999/xlink" xml:space="preserve" overflow="hidden"><g transform="translate(3998 1498)"><rect x="-3991" y="-1491" width="6655" height="4956" fill="#DAE3F5"/><rect x="-3361.5" y="-1073.5" width="45" height="739" stroke="#192D54" stroke-width="4.58333" stroke-miterlimit="8" fill="#AFBADC"/><rect x="-2647.5" y="136.5" width="91" height="517" stroke="#192D54" stroke-width="4.58333" stroke-miterlimit="8" fill="#AFBADC"/><rect x="-1879.5" y="1152.5" width="151" height="295" stroke="#192D54" stroke-width="4.58333" stroke-miterlimit="8" fill="#AFBADC"/><rect x="-1566.5" y="1927.5" width="240" height="147" stroke="#192D54" stroke-width="4.58333" stroke-miterlimit="8" fill="#AFBADC"/><rect x="-2654.5" y="-1070.5" width="45" height="738" stroke="#192D54" stroke-width="4.58333" stroke-miterlimit="8" fill="#AFBADC"/><rect x="-2188.5" y="-1070.5" width="46" height="738" stroke="#192D54" stroke-width="4.58333" stroke-miterlimit="8" fill="#F2F2F2"/><rect x="-2137.5" y="-1070.5" width="46" height="738" stroke="#192D54" stroke-width="4.58333" stroke-miterlimit="8" fill="#AFBADC"/><rect x="-1299.5" y="-1071.5" width="45" height="738" stroke="#192D54" stroke-width="4.58333" stroke-miterlimit="8" fill="#F2F2F2"/><rect x="-1249.5" y="-1071.5" width="46.0001" height="738" stroke="#192D54" stroke-width="4.58333" stroke-miterlimit="8" fill="#AFBADC"/><rect x="-303.5" y="-1068.5" width="45" height="739" stroke="#192D54" stroke-width="4.58333" stroke-miterlimit="8" fill="#F2F2F2"/><rect x="-252.5" y="-1067.5" width="45" height="738" stroke="#192D54" stroke-width="4.58333" stroke-miterlimit="8" fill="#AFBADC"/><rect x="721.5" y="-1067.5" width="46.0001" height="738" stroke="#192D54" stroke-width="4.58333" stroke-miterlimit="8" fill="#F2F2F2"/><rect x="772.5" y="-1067.5" width="45.0001" height="738" stroke="#192D54" stroke-width="4.58333" stroke-miterlimit="8" fill="#AFBADC"/><rect x="-2229.5" y="133.5" width="90" height="517" stroke="#192D54" stroke-width="4.58333" stroke-miterlimit="8" fill="#FFFFFF"/><rect x="-2132.5" y="133.5" width="90.0001" height="517" stroke="#192D54" stroke-width="4.58333" stroke-miterlimit="8" fill="#AFBADC"/><rect x="-1294.5" y="142.5" width="90.0001" height="517" stroke="#192D54" stroke-width="4.58333" stroke-miterlimit="8" fill="#FFFFFF"/><rect x="-1201.5" y="142.5" width="90.0001" height="517" stroke="#192D54" stroke-width="4.58333" stroke-miterlimit="8" fill="#AFBADC"/><rect x="-355.5" y="135.5" width="90.0001" height="517" stroke="#192D54" stroke-width="4.58333" stroke-miterlimit="8" fill="#FFFFFF"/><rect x="-262.5" y="135.5" width="91.0001" height="517" stroke="#192D54" stroke-width="4.58333" stroke-miterlimit="8" fill="#AFBADC"/><rect x="-1391.5" y="141.5" width="91.0001" height="517" stroke="#192D54" stroke-width="4.58333" stroke-miterlimit="8" fill="#FFFFFF"/><rect x="-452.5" y="135.5" width="89.9997" height="517" stroke="#192D54" stroke-width="4.58333" stroke-miterlimit="8" fill="#FFFFFF"/><rect x="-1517.5" y="1153.5" width="151" height="295" stroke="#192D54" stroke-width="4.58333" stroke-miterlimit="8" fill="#FFFFFF"/><rect x="-1367.5" y="1153.5" width="150" height="295" stroke="#192D54" stroke-width="4.58333" stroke-miterlimit="8" fill="#AFBADC"/><rect x="-503.5" y="1149.5" width="150" height="295" stroke="#192D54" stroke-width="4.58333" stroke-miterlimit="8" fill="#FFFFFF"/><rect x="-350.5" y="1149.5" width="151" height="295" stroke="#192D54" stroke-width="4.58333" stroke-miterlimit="8" fill="#AFBADC"/><rect x="-659.5" y="1150.5" width="151" height="295" stroke="#192D54" stroke-width="4.58333" stroke-miterlimit="8" fill="#FFFFFF"/><rect x="-83.5" y="1930.5" width="241" height="147" stroke="#192D54" stroke-width="4.58333" stroke-miterlimit="8" fill="#AFBADC"/><rect x="-721.5" y="1931.5" width="241" height="147" stroke="#192D54" stroke-width="4.58333" stroke-miterlimit="8" fill="#FFFFFF"/><rect x="-473.5" y="1931.5" width="241" height="147" stroke="#192D54" stroke-width="4.58333" stroke-miterlimit="8" fill="#AFBADC"/><rect x="-1167.5" y="1929.5" width="241" height="148" stroke="#192D54" stroke-width="4.58333" stroke-miterlimit="8" fill="#AFBADC"/><path d="M-1306.5 1976-1244.5 1976-1244.5 1946.5-1185.5 2005.5-1244.5 2064.5-1244.5 2035-1306.5 2035Z" stroke="#192D54" stroke-width="4.58333" stroke-miterlimit="8" fill="#F5C7B7" fill-rule="evenodd"/><path d="M-898.5 1976-806.5 1976-806.5 1946.5-747.5 2005.5-806.5 2064.5-806.5 2035-898.5 2035Z" stroke="#192D54" stroke-width="4.58333" stroke-miterlimit="8" fill="#D9D9D9" fill-rule="evenodd"/><path d="M-214.5 1974-152.5 1974-152.5 1944.5-93.5 2003.5-152.5 2062.5-152.5 2033-214.5 2033Z" stroke="#192D54" stroke-width="4.58333" stroke-miterlimit="8" fill="#92D050" fill-rule="evenodd"/><path d="M886.5 1984 947.5 1984 947.5 1954.5 1006.5 2013.5 947.5 2072.5 947.5 2043 886.5 2043Z" stroke="#192D54" stroke-width="4.58333" stroke-miterlimit="8" fill="#7030A0" fill-rule="evenodd"/><rect x="-2191.5" y="1149.5" width="151" height="295" stroke="#192D54" stroke-width="4.58333" stroke-miterlimit="8" fill="#AFBADC"/><path d="M-2019.5 1276-1958.5 1276-1958.5 1246.5-1899.5 1305.5-1958.5 1364.5-1958.5 1335-2019.5 1335Z" stroke="#192D54" stroke-width="4.58333" stroke-miterlimit="8" fill="#7030A0" fill-rule="evenodd"/><rect x="-1057.5" y="1155.5" width="150" height="295" stroke="#192D54" stroke-width="4.58333" stroke-miterlimit="8" fill="#AFBADC"/><path d="M-1193.5 1279-1132.5 1279-1132.5 1249.5-1073.5 1308.5-1132.5 1367.5-1132.5 1338-1193.5 1338Z" stroke="#192D54" stroke-width="4.58333" stroke-miterlimit="8" fill="#F5C7B7" fill-rule="evenodd"/><rect x="31.5001" y="1153.5" width="150" height="295" stroke="#192D54" stroke-width="4.58333" stroke-miterlimit="8" fill="#AFBADC"/><path d="M-138.5 1279-76.5 1279-76.5 1249.5-17.5 1308.5-76.5 1367.5-76.5 1338-138.5 1338Z" stroke="#192D54" stroke-width="4.58333" stroke-miterlimit="8" fill="#92D050" fill-rule="evenodd"/><rect x="-2946.5" y="134.5" width="90" height="517" stroke="#192D54" stroke-width="4.58333" stroke-miterlimit="8" fill="#AFBADC"/><path d="M-2812.5 384-2750.5 384-2750.5 354.5-2691.5 413.5-2750.5 472.5-2750.5 443-2812.5 443Z" stroke="#192D54" stroke-width="4.58333" stroke-miterlimit="8" fill="#F5C7B7" fill-rule="evenodd"/><path d="M-2510.5 384-2343.5 384-2343.5 354.5-2284.5 413.5-2343.5 472.5-2343.5 443-2510.5 443Z" stroke="#192D54" stroke-width="4.58333" stroke-miterlimit="8" fill="#D9D9D9" fill-rule="evenodd"/><rect x="-1851.5" y="136.5" width="91.0001" height="517" stroke="#192D54" stroke-width="4.58333" stroke-miterlimit="8" fill="#AFBADC"/><path d="M-2003.5 384-1942.5 384-1942.5 354.5-1883.5 413.5-1942.5 472.5-1942.5 443-2003.5 443Z" stroke="#192D54" stroke-width="4.58333" stroke-miterlimit="8" fill="#7030A0" fill-rule="evenodd"/><rect x="-930.5" y="144.5" width="90.0001" height="517" stroke="#192D54" stroke-width="4.58333" stroke-miterlimit="8" fill="#AFBADC"/><path d="M-1690.5 384-1523.5 384-1523.5 354.5-1464.5 413.5-1523.5 472.5-1523.5 443-1690.5 443Z" stroke="#192D54" stroke-width="4.58333" stroke-miterlimit="8" fill="#D9D9D9" fill-rule="evenodd"/><path d="M-1074.5 384-1013.5 384-1013.5 354.5-954.5 413.5-1013.5 472.5-1013.5 443-1074.5 443Z" stroke="#192D54" stroke-width="4.58333" stroke-miterlimit="8" fill="#F5C7B7" fill-rule="evenodd"/><rect x="145.5" y="135.5" width="90.0001" height="517" stroke="#192D54" stroke-width="4.58333" stroke-miterlimit="8" fill="#AFBADC"/><path d="M-75.5001 385-14.5 385-14.5 355.5 44.4998 414.5-14.5 473.5-14.5 444-75.5001 444Z" stroke="#192D54" stroke-width="4.58333" stroke-miterlimit="8" fill="#92D050" fill-rule="evenodd"/><path d="M-760.5 385-593.5 385-593.5 355.5-534.5 414.5-593.5 473.5-593.5 444-760.5 444Z" stroke="#192D54" stroke-width="4.58333" stroke-miterlimit="8" fill="#D9D9D9" fill-rule="evenodd"/><path d="M291.5 384 458.5 384 458.5 354.5 517.5 413.5 458.5 472.5 458.5 443 291.5 443Z" stroke="#192D54" stroke-width="4.58333" stroke-miterlimit="8" fill="#D9D9D9" fill-rule="evenodd"/><path d="M-3618.5-720-3451.5-720-3451.5-749.5-3392.5-690.5-3451.5-631.499-3451.5-661-3618.5-661Z" stroke="#192D54" stroke-width="4.58333" stroke-miterlimit="8" fill="#92D050" fill-rule="evenodd"/><path d="M-3073.5-720-2906.5-720-2906.5-749.5-2847.5-690.5-2906.5-631.5-2906.5-661-3073.5-661Z" stroke="#192D54" stroke-width="4.58333" stroke-miterlimit="8" fill="#F5C7B7" fill-rule="evenodd"/><rect x="-1766.5" y="-1071.5" width="45" height="739" stroke="#192D54" stroke-width="4.58333" stroke-miterlimit="8" fill="#AFBADC"/><path d="M-2022.5-725-1855.5-725-1855.5-754.5-1796.5-695.5-1855.5-636.5-1855.5-666-2022.5-666Z" stroke="#192D54" stroke-width="4.58333" stroke-miterlimit="8" fill="#7030A0" fill-rule="evenodd"/><rect x="-812.5" y="-1078.5" width="45.0001" height="739" stroke="#192D54" stroke-width="4.58333" stroke-miterlimit="8" fill="#AFBADC"/><path d="M-1122.5-723-955.5-723-955.5-752.5-896.5-693.5-955.5-634.5-955.5-664-1122.5-664Z" stroke="#192D54" stroke-width="4.58333" stroke-miterlimit="8" fill="#F5C7B7" fill-rule="evenodd"/><path d="M-2520.5-720-2354.5-720-2354.5-749.5-2295.5-690.5-2354.5-631.5-2354.5-661-2520.5-661Z" stroke="#192D54" stroke-width="4.58333" stroke-miterlimit="8" fill="#D9D9D9" fill-rule="evenodd"/><path d="M-1623.5-725-1456.5-725-1456.5-754.5-1397.5-695.5-1456.5-636.5-1456.5-666-1623.5-666Z" stroke="#192D54" stroke-width="4.58333" stroke-miterlimit="8" fill="#D9D9D9" fill-rule="evenodd"/><path d="M-627.5-720-461.5-720-461.5-749.5-402.5-690.5-461.5-631.5-461.5-661-627.5-661Z" stroke="#192D54" stroke-width="4.58333" stroke-miterlimit="8" fill="#D9D9D9" fill-rule="evenodd"/><rect x="235.5" y="-1073.5" width="45" height="739" stroke="#192D54" stroke-width="4.58333" stroke-miterlimit="8" fill="#AFBADC"/><path d="M-95.5001-720 71.5001-720 71.5001-749.5 130.5-690.5 71.5001-631.499 71.5001-661-95.5001-661Z" stroke="#192D54" stroke-width="4.58333" stroke-miterlimit="8" fill="#92D050" fill-rule="evenodd"/><path d="M384.5-720 551.5-720 551.5-749.5 610.5-690.5 551.5-631.5 551.5-661 384.5-661Z" stroke="#192D54" stroke-width="4.58333" stroke-miterlimit="8" fill="#D9D9D9" fill-rule="evenodd"/><rect x="1221.5" y="-1071.5" width="45" height="739" stroke="#192D54" stroke-width="4.58333" stroke-miterlimit="8" fill="#AFBADC"/><path d="M893.5-723 1060.5-723 1060.5-752.5 1119.5-693.5 1060.5-634.5 1060.5-664 893.5-664Z" stroke="#192D54" stroke-width="4.58333" stroke-miterlimit="8" fill="#7030A0" fill-rule="evenodd"/><path d="M1330.5 1277 1497.5 1277 1497.5 1247.5 1556.5 1306.5 1497.5 1365.5 1497.5 1336 1330.5 1336Z" stroke="#192D54" stroke-width="4.58333" stroke-miterlimit="8" fill="#D9D9D9" fill-rule="evenodd"/><path d="M1325.5 1965 1492.5 1965 1492.5 1935.5 1551.5 1994.5 1492.5 2053.5 1492.5 2024 1325.5 2024Z" stroke="#192D54" stroke-width="4.58333" stroke-miterlimit="8" fill="#D9D9D9" fill-rule="evenodd"/><rect x="1025.5" y="1930.5" width="241" height="148" stroke="#192D54" stroke-width="4.58333" stroke-miterlimit="8" fill="#AFBADC"/><rect x="379.5" y="1930.5" width="241" height="147" stroke="#192D54" stroke-width="4.58333" stroke-miterlimit="8" fill="#FFFFFF"/><rect x="624.5" y="1930.5" width="241" height="147" stroke="#192D54" stroke-width="4.58333" stroke-miterlimit="8" fill="#AFBADC"/><rect x="619.5" y="1152.5" width="151" height="295" stroke="#192D54" stroke-width="4.58333" stroke-miterlimit="8" fill="#FFFFFF"/><rect x="773.5" y="1152.5" width="151" height="295" stroke="#192D54" stroke-width="4.58333" stroke-miterlimit="8" fill="#AFBADC"/><rect x="464.5" y="1153.5" width="150" height="295" stroke="#192D54" stroke-width="4.58333" stroke-miterlimit="8" fill="#FFFFFF"/><rect x="1115.5" y="1158.5" width="151" height="295" stroke="#192D54" stroke-width="4.58333" stroke-miterlimit="8" fill="#AFBADC"/><path d="M960.5 1277 1021.5 1277 1021.5 1247.5 1080.5 1306.5 1021.5 1365.5 1021.5 1336 960.5 1336Z" stroke="#192D54" stroke-width="4.58333" stroke-miterlimit="8" fill="#7030A0" fill-rule="evenodd"/><rect x="712.5" y="135.5" width="90.9998" height="517" stroke="#192D54" stroke-width="4.58333" stroke-miterlimit="8" fill="#FFFFFF"/><rect x="806.5" y="135.5" width="90.0001" height="517" stroke="#192D54" stroke-width="4.58333" stroke-miterlimit="8" fill="#AFBADC"/><rect x="619.5" y="135.5" width="91.0001" height="517" stroke="#192D54" stroke-width="4.58333" stroke-miterlimit="8" fill="#FFFFFF"/><rect x="1177.5" y="135.5" width="90.0001" height="517" stroke="#192D54" stroke-width="4.58333" stroke-miterlimit="8" fill="#AFBADC"/><path d="M993.5 384 1054.5 384 1054.5 354.5 1113.5 413.5 1054.5 472.5 1054.5 443 993.5 443Z" stroke="#192D54" stroke-width="4.58333" stroke-miterlimit="8" fill="#7030A0" fill-rule="evenodd"/><path d="M3.6109-3.68081 436.914 421.393 429.693 428.755-3.6109 3.68081ZM440.455 410.42 451.707 443.128 418.79 432.505Z" transform="matrix(1 0 0 -1 81.0001 1917.13)"/><path d="M101.611 1467.32 534.914 1892.39 527.693 1899.75 94.3891 1474.68ZM538.455 1881.42 549.707 1914.13 516.79 1903.51Z"/><path d="M196.5 1983 287.5 1983 287.5 1953.5 346.5 2012.5 287.5 2071.5 287.5 2042 196.5 2042Z" stroke="#192D54" stroke-width="4.58333" stroke-miterlimit="8" fill="#D9D9D9" fill-rule="evenodd"/><path d="M-1696.5 1278-1604.5 1278-1604.5 1248.5-1545.5 1307.5-1604.5 1366.5-1604.5 1337-1696.5 1337Z" stroke="#192D54" stroke-width="4.58333" stroke-miterlimit="8" fill="#D9D9D9" fill-rule="evenodd"/><path d="M-844.5 1279-753.5 1279-753.5 1249.5-694.5 1308.5-753.5 1367.5-753.5 1338-844.5 1338Z" stroke="#192D54" stroke-width="4.58333" stroke-miterlimit="8" fill="#D9D9D9" fill-rule="evenodd"/><path d="M252.5 1274 344.5 1274 344.5 1244.5 403.5 1303.5 344.5 1362.5 344.5 1333 252.5 1333Z" stroke="#192D54" stroke-width="4.58333" stroke-miterlimit="8" fill="#D9D9D9" fill-rule="evenodd"/><path d="M1827-901.5C1848.26-901.5 1865.5-884.263 1865.5-863L1865.5 2071C1865.5 2092.26 1848.26 2109.5 1827 2109.5L1673 2109.5C1651.74 2109.5 1634.5 2092.26 1634.5 2071L1634.5-863C1634.5-884.263 1651.74-901.5 1673-901.5Z" stroke="#192D54" stroke-width="4.58333" stroke-miterlimit="8" fill="#FAE3DB" fill-rule="evenodd"/><text font-family="Calibri,Calibri_MSFontService,sans-serif" font-weight="400" font-size="128" transform="matrix(6.12323e-17 1 -1 6.12323e-17 1706.43 -24)">Multi</text><text font-family="Calibri,Calibri_MSFontService,sans-serif" font-weight="400" font-size="128" transform="matrix(6.12323e-17 1 -1 6.12323e-17 1706.43 255)">-</text><text font-family="Calibri,Calibri_MSFontService,sans-serif" font-weight="400" font-size="128" transform="matrix(6.12323e-17 1 -1 6.12323e-17 1706.43 294)">scale Fusion Block</text><path d="M1329.5 384 1496.5 384 1496.5 354.5 1555.5 413.5 1496.5 472.5 1496.5 443 1329.5 443Z" stroke="#192D54" stroke-width="4.58333" stroke-miterlimit="8" fill="#D9D9D9" fill-rule="evenodd"/><path d="M1328.5-723 1495.5-723 1495.5-752.5 1554.5-693.5 1495.5-634.5 1495.5-664 1328.5-664Z" stroke="#192D54" stroke-width="4.58333" stroke-miterlimit="8" fill="#D9D9D9" fill-rule="evenodd"/><path d="M1762.75-1139.5 1762.75-995 1789.5-995 1736-941.5 1682.5-995 1709.25-995 1709.25-1139.5Z" stroke="#192D54" stroke-width="4.58333" stroke-miterlimit="8" fill="#FF0000" fill-rule="evenodd"/><path d="M3.6109-3.68081 436.914 421.393 429.693 428.755-3.6109 3.68081ZM440.455 410.42 451.707 443.128 418.79 432.505Z" transform="matrix(1 0 0 -1 -1043 1905.13)"/><path d="M-1022.39 1456.32-589.086 1881.39-596.308 1888.75-1029.61 1463.68ZM-585.545 1870.42-574.293 1903.13-607.21 1892.51Z"/><path d="M-1835.39 1457.32-1402.09 1882.39-1409.31 1889.75-1842.61 1464.68ZM-1398.54 1871.42-1387.29 1904.13-1420.21 1893.51Z"/><path d="M1897 521.125 2182.81 521.125 2182.81 534.875 1897 534.875ZM2175.94 507.375 2217.19 528 2175.94 548.625Z"/><path d="M3.6109-3.68081 436.914 421.393 429.693 428.755-3.6109 3.68081ZM440.455 410.42 451.707 443.128 418.79 432.505Z" transform="matrix(1 0 0 -1 163 1134.13)"/><path d="M202.611 682.319 635.914 1107.39 628.693 1114.75 195.389 689.681ZM639.455 1096.42 650.707 1129.13 617.79 1118.51Z"/><path d="M3.6109-3.68081 436.914 421.393 429.693 428.755-3.6109 3.68081ZM440.455 410.42 451.707 443.128 418.79 432.505Z" transform="matrix(1 0 0 -1 -937 1127.13)"/><path d="M-901.389 664.319-468.086 1089.39-475.308 1096.75-908.611 671.681ZM-464.545 1078.42-453.293 1111.13-486.21 1100.51Z"/><path d="M3.6109-3.68081 436.914 421.393 429.693 428.755-3.6109 3.68081ZM440.455 410.42 451.707 443.128 418.79 432.505Z" transform="matrix(1 0 0 -1 -1849 1127.13)"/><path d="M-1823.39 667.319-1390.09 1092.39-1397.31 1099.75-1830.61 674.681ZM-1386.54 1081.42-1375.29 1114.13-1408.21 1103.51Z"/><path d="M-2529.39 679.319-2096.09 1104.39-2103.31 1111.75-2536.61 686.681ZM-2092.54 1093.42-2081.29 1126.13-2114.21 1115.51Z"/><path d="M3.6109-3.68081 436.914 421.393 429.693 428.755-3.6109 3.68081ZM440.455 410.42 451.707 443.128 418.79 432.505Z" transform="matrix(1 0 0 -1 233 129.128)"/><path d="M285.611-314.681 718.914 110.393 711.692 117.754 278.389-307.319ZM722.455 99.4203 733.707 132.128 700.79 121.505Z"/><path d="M3.6109-3.68081 436.914 421.393 429.693 428.755-3.6109 3.68081ZM440.455 410.42 451.707 443.128 418.79 432.505Z" transform="matrix(1 0 0 -1 -802 137.128)"/><path d="M-762.389-313.681-329.086 111.393-336.307 118.755-769.611-306.319ZM-325.545 100.42-314.293 133.128-347.21 122.505Z"/><path d="M3.6109-3.68081 436.914 421.393 429.693 428.755-3.6109 3.68081ZM440.455 410.42 451.707 443.128 418.79 432.505Z" transform="matrix(1 0 0 -1 -1762 131.128)"/><path d="M-1722.39-319.681-1289.09 105.393-1296.31 112.755-1729.61-312.319ZM-1285.54 94.4205-1274.29 127.128-1307.21 116.505Z"/><path d="M3.6109-3.68081 436.914 421.393 429.693 428.755-3.6109 3.68081ZM440.455 410.42 451.707 443.128 418.79 432.505Z" transform="matrix(1 0 0 -1 -2633 122.128)"/><path d="M-2610.39-328.681-2177.09 96.3932-2184.31 103.755-2617.61-321.319ZM-2173.54 85.4206-2162.29 118.128-2195.21 107.505Z"/><path d="M-3347.39-313.681-2914.09 111.393-2921.31 118.755-3354.61-306.319ZM-2910.54 100.42-2899.29 133.128-2932.21 122.505Z"/><rect x="-3711.5" y="-1073.5" width="46" height="738" stroke="#192D54" stroke-width="4.58333" stroke-miterlimit="8" fill="#F2F2F2"/><rect x="1373.5" y="-1204.5" width="753" height="44" stroke="#192D54" stroke-width="4.58333" stroke-miterlimit="8" fill="#F2F2F2"/><rect x="2219.5" y="159.5" width="45" height="738" stroke="#192D54" stroke-width="4.58333" stroke-miterlimit="8" fill="#F2F2F2"/><text font-family="Calibri,Calibri_MSFontService,sans-serif" font-weight="400" font-size="128" transform="matrix(1 0 0 1 -3877.99 -1300)">InPuts</text><text font-family="Calibri,Calibri_MSFontService,sans-serif" font-weight="400" font-size="128" transform="matrix(1 0 0 1 1576.25 -1300)">InPuts</text><text font-family="Calibri,Calibri_MSFontService,sans-serif" font-weight="400" font-size="128" transform="matrix(1 0 0 1 1991.27 1053)">OutPuts</text><text font-family="Calibri,Calibri_MSFontService,sans-serif" font-weight="400" font-size="101" transform="matrix(1 0 0 1 2077.86 74)">1, H, W</text><text font-family="Calibri,Calibri_MSFontService,sans-serif" font-weight="400" font-size="101" transform="matrix(1 0 0 1 2215.18 -1183)">1, H, W</text><text font-family="Calibri,Calibri_MSFontService,sans-serif" font-weight="400" font-size="101" transform="matrix(1 0 0 1 -3877 -1155)">1, H, W</text><text font-family="Calibri,Calibri_MSFontService,sans-serif" font-weight="400" font-size="101" transform="matrix(1 0 0 1 -3153.94 801)">2C, H/2, W/2</text><text font-family="Calibri,Calibri_MSFontService,sans-serif" font-weight="400" font-size="101" transform="matrix(1 0 0 1 -2394.92 1602)">4C, H/4, W/4</text><text font-family="Calibri,Calibri_MSFontService,sans-serif" font-weight="400" font-size="101" transform="matrix(1 0 0 1 -2229.76 2014)">8C, H/8, W/8</text><text font-family="Calibri,Calibri_MSFontService,sans-serif" font-weight="400" font-size="101" transform="matrix(1 0 0 1 -3619.08 -92)">C, H, W</text><path d="M-3536.5 2647-3369.5 2647-3369.5 2617.5-3310.5 2676.5-3369.5 2735.5-3369.5 2706-3536.5 2706Z" stroke="#192D54" stroke-width="4.58333" stroke-miterlimit="8" fill="#F5C7B7" fill-rule="evenodd"/><path d="M-3525.5 2376-3358.5 2376-3358.5 2346.5-3299.5 2405.5-3358.5 2464.5-3358.5 2435-3525.5 2435Z" stroke="#192D54" stroke-width="4.58333" stroke-miterlimit="8" fill="#92D050" fill-rule="evenodd"/><path d="M-3536.5 2919-3369.5 2919-3369.5 2889.5-3310.5 2948.5-3369.5 3007.5-3369.5 2978-3536.5 2978Z" stroke="#192D54" stroke-width="4.58333" stroke-miterlimit="8" fill="#7030A0" fill-rule="evenodd"/><text font-family="Calibri,Calibri_MSFontService,sans-serif" font-weight="400" font-size="128" transform="matrix(1 0 0 1 -3265.87 2442)">Dilation Residual </text><text font-family="Calibri,Calibri_MSFontService,sans-serif" font-weight="400" font-size="128" transform="matrix(1 0 0 1 -2365.82 2442)">Block,rate</text><text font-family="Calibri,Calibri_MSFontService,sans-serif" font-weight="400" font-size="128" transform="matrix(1 0 0 1 -1846.8 2442)">=1</text><text font-family="Calibri,Calibri_MSFontService,sans-serif" font-weight="400" font-size="128" transform="matrix(1 0 0 1 -3254.07 2714)">Dilation Residual </text><text font-family="Calibri,Calibri_MSFontService,sans-serif" font-weight="400" font-size="128" transform="matrix(1 0 0 1 -2354.01 2714)">Block,rate</text><text font-family="Calibri,Calibri_MSFontService,sans-serif" font-weight="400" font-size="128" transform="matrix(1 0 0 1 -1835 2714)">=2</text><text font-family="Calibri,Calibri_MSFontService,sans-serif" font-weight="400" font-size="128" transform="matrix(1 0 0 1 -3255.18 2989)">Dilation Residual </text><text font-family="Calibri,Calibri_MSFontService,sans-serif" font-weight="400" font-size="128" transform="matrix(1 0 0 1 -2355.13 2989)">Block,rate</text><text font-family="Calibri,Calibri_MSFontService,sans-serif" font-weight="400" font-size="128" transform="matrix(1 0 0 1 -1836.11 2989)">=3</text><path d="M-1123.5 2384-957.5 2384-957.5 2354.5-898.5 2413.5-957.5 2472.5-957.5 2443-1123.5 2443Z" stroke="#192D54" stroke-width="4.58333" stroke-miterlimit="8" fill="#D9D9D9" fill-rule="evenodd"/><text font-family="Calibri,Calibri_MSFontService,sans-serif" font-weight="400" font-size="128" transform="matrix(1 0 0 1 -747.013 2458)">Concatenate</text><path d="M3.28704-3.97269 203.714 161.863 197.14 169.808-3.28704 3.97269ZM206.316 150.63 220.291 182.271 186.593 174.466Z" transform="matrix(1 0 0 -1 451 2928.27)"/><text font-family="Calibri,Calibri_MSFontService,sans-serif" font-weight="400" font-size="128" transform="matrix(1 0 0 1 992.738 2882)">Up</text><text font-family="Calibri,Calibri_MSFontService,sans-serif" font-weight="400" font-size="128" transform="matrix(1 0 0 1 1142.84 2882)">-</text><text font-family="Calibri,Calibri_MSFontService,sans-serif" font-weight="400" font-size="128" transform="matrix(1 0 0 1 1182.37 2882)">sampling</text><path d="M432.444 2350.16 639.11 2535.63 632.223 2543.31 425.556 2357.84ZM642.161 2524.51 654.854 2556.69 621.497 2547.54Z"/><text font-family="Calibri,Calibri_MSFontService,sans-serif" font-weight="400" font-size="128" transform="matrix(1 0 0 1 931.596 2441)">Down</text><text font-family="Calibri,Calibri_MSFontService,sans-serif" font-weight="400" font-size="128" transform="matrix(1 0 0 1 1237.03 2441)">-</text><text font-family="Calibri,Calibri_MSFontService,sans-serif" font-weight="400" font-size="128" transform="matrix(1 0 0 1 1276.56 2441)">sampling</text><path d="M-1120.5 2803-953.5 2803-953.5 2773.5-894.5 2832.5-953.5 2891.5-953.5 2862-1120.5 2862Z" stroke="#192D54" stroke-width="4.58333" stroke-miterlimit="8" fill="#FF0000" fill-rule="evenodd"/><text font-family="Calibri,Calibri_MSFontService,sans-serif" font-weight="400" font-size="128" transform="matrix(1 0 0 1 -750.881 2878)">1x1 Conv</text><text font-family="Calibri,Calibri_MSFontService,sans-serif" font-weight="400" font-size="165" transform="matrix(1 0 0 1 -1802.31 3312)">(a) Architecture of DFR</text><text font-family="Calibri,Calibri_MSFontService,sans-serif" font-weight="400" font-size="165" transform="matrix(1 0 0 1 -279.539 3312)">-</text><text font-family="Calibri,Calibri_MSFontService,sans-serif" font-weight="400" font-size="165" transform="matrix(1 0 0 1 -229.122 3312)">Net</text><rect x="2672" y="-1487" width="6600" height="3076" fill="#DAE3F5"/><rect x="6577.5" y="-115.995" width="45.4941" height="452.495" fill="#F0AA93"/><path d="M6622.99-115.995 6784.5-277.5 6784.5 174.995 6622.99 336.5Z" fill="#C18976" fill-rule="evenodd"/><path d="M6577.5-115.995 6739.01-277.5 6784.5-277.5 6622.99-115.995Z" fill="#F3BBA8" fill-rule="evenodd"/><path d="M6577.5-115.995 6739.01-277.5 6784.5-277.5 6784.5 174.995 6622.99 336.5 6577.5 336.5ZM6577.5-115.995 6622.99-115.995 6784.5-277.5M6622.99-115.995 6622.99 336.5" stroke="#192D54" stroke-width="4.58333" stroke-miterlimit="8" fill="none" fill-rule="evenodd"/><rect x="6618.5" y="-115.995" width="45.4941" height="452.495" fill="#C8E5B3"/><path d="M6663.99-115.995 6825.5-277.5 6825.5 174.995 6663.99 336.5Z" fill="#A1B890" fill-rule="evenodd"/><path d="M6618.5-115.995 6780.01-277.5 6825.5-277.5 6663.99-115.995Z" fill="#D3EAC2" fill-rule="evenodd"/><path d="M6618.5-115.995 6780.01-277.5 6825.5-277.5 6825.5 174.995 6663.99 336.5 6618.5 336.5ZM6618.5-115.995 6663.99-115.995 6825.5-277.5M6663.99-115.995 6663.99 336.5" stroke="#192D54" stroke-width="4.58333" stroke-miterlimit="8" fill="none" fill-rule="evenodd"/><path d="M0 0 5.49459 2003.12" stroke="#000000" stroke-width="13.75" stroke-miterlimit="8" fill="none" fill-rule="evenodd" transform="matrix(-1 0 0 1 7171.49 -1074)"/><path d="M6848-8.99993 7159.48-8.99957" stroke="#000000" stroke-width="13.75" stroke-miterlimit="8" fill="none" fill-rule="evenodd"/><path d="M8195-57.0001 8195 62.9999M8135 2.99992 8255 2.99992" stroke="#192D54" stroke-width="10.3125" stroke-miterlimit="8" fill="none" fill-rule="evenodd"/><path d="M8135 2.99992C8135-30.1372 8161.86-57.0001 8195-57.0001 8228.14-57.0001 8255-30.1372 8255 2.99992 8255 36.137 8228.14 62.9999 8195 62.9999 8161.86 62.9999 8135 36.137 8135 2.99992Z" stroke="#192D54" stroke-width="10.3125" stroke-miterlimit="8" fill="none" fill-rule="evenodd"/><rect x="8647.5" y="-209.995" width="45.4941" height="452.495" fill="#C9471C"/><path d="M8692.99-209.995 8854.5-371.5 8854.5 80.9945 8692.99 242.5Z" fill="#A23917" fill-rule="evenodd"/><path d="M8647.5-209.995 8809.01-371.5 8854.5-371.5 8692.99-209.995Z" fill="#D46B49" fill-rule="evenodd"/><path d="M8647.5-209.995 8809.01-371.5 8854.5-371.5 8854.5 80.9945 8692.99 242.5 8647.5 242.5ZM8647.5-209.995 8692.99-209.995 8854.5-371.5M8692.99-209.995 8692.99 242.5" stroke="#192D54" stroke-width="4.58333" stroke-miterlimit="8" fill="none" fill-rule="evenodd"/><path d="M0 0 391.294 6.28386" stroke="#000000" stroke-width="13.75" stroke-miterlimit="8" fill="none" fill-rule="evenodd" transform="matrix(1 0 0 -1 7804 -1077.72)"/><path d="M0 0 330.662 4.2957" stroke="#000000" stroke-width="13.75" stroke-miterlimit="8" fill="none" fill-rule="evenodd" transform="matrix(1 0 0 -1 7864 937.296)"/><path d="M7165.04-1080.87 7572.38-1078.6 7572.31-1064.85 7164.96-1067.12ZM7565.58-1092.39 7606.72-1071.54 7565.35-1051.14Z"/><path d="M7166-351.875 7599.27-351.861 7599.27-338.111 7166-338.125ZM7592.39-365.611 7633.64-344.985 7592.39-324.361Z"/><path d="M7170 261.125 7605.52 261.125 7605.52 274.875 7170 274.875ZM7598.65 247.375 7639.9 268 7598.65 288.625Z"/><path d="M7160 923.125 7622.45 923.125 7622.45 936.875 7160 936.875ZM7615.57 909.375 7656.82 930 7615.57 950.625Z"/><text font-family="Calibri,Calibri_MSFontService,sans-serif" font-weight="400" font-size="83" transform="matrix(1 0 0 1 7221.42 -1234)">3x3 Conv2d</text><text font-family="Calibri,Calibri_MSFontService,sans-serif" font-weight="400" font-size="83" transform="matrix(1 0 0 1 7221.42 -1135)">Dilation 1</text><text font-family="Calibri,Calibri_MSFontService,sans-serif" font-weight="400" font-size="83" transform="matrix(1 0 0 1 7207.88 -501)">3x3 Conv2d</text><text font-family="Calibri,Calibri_MSFontService,sans-serif" font-weight="400" font-size="83" transform="matrix(1 0 0 1 7207.88 -402)">Dilation 2</text><text font-family="Calibri,Calibri_MSFontService,sans-serif" font-weight="400" font-size="92" transform="matrix(1 0 0 1 7221.42 130)">3x3 Conv2d</text><text font-family="Calibri,Calibri_MSFontService,sans-serif" font-weight="400" font-size="92" transform="matrix(1 0 0 1 7221.42 240)">Dilation 3</text><text font-family="Calibri,Calibri_MSFontService,sans-serif" font-weight="400" font-size="83" transform="matrix(1 0 0 1 7194.97 850)">1x1 Conv2d</text><text font-family="Calibri,Calibri_MSFontService,sans-serif" font-weight="400" font-size="92" transform="matrix(1 0 0 1 2835.06 373)">4C, H/4, W/4</text><text font-family="Calibri,Calibri_MSFontService,sans-serif" font-weight="400" font-size="92" transform="matrix(1 0 0 1 2852.58 -175)">2C, H/2, W/2</text><text font-family="Calibri,Calibri_MSFontService,sans-serif" font-weight="400" font-size="92" transform="matrix(1 0 0 1 6452.56 -322)">Concatenate</text><text font-family="Calibri,Calibri_MSFontService,sans-serif" font-weight="400" font-size="83" transform="matrix(1 0 0 1 7886.62 869)">C, H, W</text><text font-family="Calibri,Calibri_MSFontService,sans-serif" font-weight="400" font-size="83" transform="matrix(1 0 0 1 7893.73 387)">C, H, W</text><text font-family="Calibri,Calibri_MSFontService,sans-serif" font-weight="400" font-size="83" transform="matrix(1 0 0 1 7884.46 -440)">C, H, W</text><text font-family="Calibri,Calibri_MSFontService,sans-serif" font-weight="400" font-size="83" transform="matrix(1 0 0 1 7836.51 -832)">C, H, W</text><text font-family="Calibri,Calibri_MSFontService,sans-serif" font-weight="400" font-size="83" transform="matrix(1 0 0 1 8582.25 354)">C, H, W</text><path d="M0.059478-6.87474 274.492-4.50045 274.373 9.24904-0.059478 6.87474ZM267.736-18.3094 308.806 2.67169 267.379 22.939Z" transform="matrix(1 0 0 -1 3577 304.672)"/><text font-family="Calibri,Calibri_MSFontService,sans-serif" font-weight="400" font-size="92" transform="matrix(1 0 0 1 2840.07 973)">8C, H/8, W/8</text><text font-family="Calibri,Calibri_MSFontService,sans-serif" font-weight="400" font-size="92" transform="matrix(1 0 0 1 3730.02 1191)">2x2 Conv2d</text><text font-family="Calibri,Calibri_MSFontService,sans-serif" font-weight="400" font-size="92" transform="matrix(1 0 0 1 4438.48 340)">2x2 Conv2d</text><text font-family="Calibri,Calibri_MSFontService,sans-serif" font-weight="400" font-size="92" transform="matrix(1 0 0 1 4632.28 -365)">2x2 Conv2d</text><path d="M0.0510088-6.87481 419.197-3.76489 419.094 9.98473-0.0510088 6.87481ZM412.424-17.5655 453.519 3.36496 412.117 23.6833Z" transform="matrix(1 0 0 -1 5318 381.365)"/><path d="M0 0 5.22428 1428.24" stroke="#000000" stroke-width="13.75" stroke-miterlimit="8" fill="none" fill-rule="evenodd" transform="matrix(-1 0 0 1 6312.22 -1047)"/><rect x="6650.5" y="-114.995" width="45.4941" height="452.495" fill="#B6C7EA"/><path d="M6695.99-114.995 6857.5-276.5 6857.5 175.995 6695.99 337.5Z" fill="#92A0BC" fill-rule="evenodd"/><path d="M6650.5-114.995 6812.01-276.5 6857.5-276.5 6695.99-114.995Z" fill="#C4D2EE" fill-rule="evenodd"/><path d="M6650.5-114.995 6812.01-276.5 6857.5-276.5 6857.5 175.995 6695.99 337.5 6650.5 337.5ZM6650.5-114.995 6695.99-114.995 6857.5-276.5M6695.99-114.995 6695.99 337.5" stroke="#192D54" stroke-width="4.58333" stroke-miterlimit="8" fill="none" fill-rule="evenodd"/><text font-family="Calibri,Calibri_MSFontService,sans-serif" font-weight="400" font-size="83" transform="matrix(1 0 0 1 8249.07 -207)">1x1 Conv2d</text><text font-family="Calibri,Calibri_MSFontService,sans-serif" font-weight="400" font-size="83" transform="matrix(1 0 0 1 8305.79 -108)">Sigmoid</text><path d="M8198.88-1084.06 8207.38-94.2446 8193.63-94.1265 8185.13-1083.94ZM8221.07-101.238 8200.8-59.8121 8179.82-100.884Z"/><path d="M6.87498-0.0156785 8.77175 831.712-4.97821 831.744-6.87498 0.0156785ZM22.506 824.806 1.97516 866.103-18.7439 824.9Z" transform="matrix(1 0 0 -1 8192 937.103)"/><path d="M7834.73-349.991 8132.33-68.0992 8122.87-58.1165 7825.27-340.009ZM8136.79-82.8096 8152.56-39.4686 8108.42-52.8618Z"/><path d="M3.98217-5.60428 299.156 204.134 291.192 215.343-3.98217 5.60428ZM301.517 188.943 323.196 229.649 277.624 222.569Z" transform="matrix(1 0 0 -1 7840 277.649)"/><path d="M8259-3.8749 8622.98-3.87457 8622.98 9.87543 8259 9.8751ZM8616.1-17.6246 8657.35 3.00046 8616.1 23.6254Z"/><path d="M0.0694288-6.87465 436.464-2.4674 436.325 11.2819-0.0694288 6.87465ZM429.728-16.2861 470.767 4.7544 429.311 24.9618Z" transform="matrix(1 0 0 -1 5286 -302.246)"/><path d="M3538-1047.87 5701.11-1047.87 5701.11-1034.12 3538-1034.12ZM5694.24-1061.62 5735.49-1041 5694.24-1020.37Z"/><path d="M3566-297.875 4276.83-297.674 4276.82-283.924 3566-284.125ZM4269.96-311.426 4311.2-290.789 4269.94-270.176Z"/><path d="M0.0382952-6.87489 510.148-4.03343 510.072 9.71636-0.0382952 6.87489ZM503.35-17.8215 544.484 3.03294 503.12 23.4278Z" fill="#F0AA93" transform="matrix(1 0 0 -1 4554 -290.967)"/><path d="M5939-1047 6316.32-1047" stroke="#000000" stroke-width="13.75" stroke-miterlimit="8" fill="none" fill-rule="evenodd"/><path d="M0 0 344.95 2.90013" stroke="#000000" stroke-width="13.75" stroke-miterlimit="8" fill="none" fill-rule="evenodd" transform="matrix(1 0 0 -1 5957 -318.1)"/><path d="M5982 378 6306.78 378" stroke="#000000" stroke-width="13.75" stroke-miterlimit="8" fill="none" fill-rule="evenodd"/><path d="M0.0376722-6.8749 223.242-5.65181 223.167 8.09799-0.0376722 6.8749ZM216.443-19.4393 257.579 1.41145 216.217 21.8101Z" transform="matrix(1 0 0 -1 6316 -9.58855)"/><text font-family="Calibri,Calibri_MSFontService,sans-serif" font-weight="400" font-size="92" transform="matrix(1 0 0 1 3023.98 -878)">C, H, W</text><text font-family="Calibri,Calibri_MSFontService,sans-serif" font-weight="400" font-size="83" transform="matrix(1 0 0 1 5312.14 634)">1, H, W</text><text font-family="Calibri,Calibri_MSFontService,sans-serif" font-weight="400" font-size="83" transform="matrix(1 0 0 1 5341.41 304)">1x1 Conv2d</text><path d="M0-6.875 372.256-6.875 372.256 250.698 358.506 250.698 358.506 0 365.381 6.875 0 6.875ZM386.006 243.823 365.381 285.073 344.756 243.823Z" fill="#F0AA93" transform="matrix(1 0 0 -1 3593 996.073)"/><rect x="7654.5" y="769.785" width="45.7144" height="451.714" fill="#D9D9D9"/><path d="M7700.21 769.785 7862.5 607.5 7862.5 1059.21 7700.21 1221.5Z" fill="#AEAEAE" fill-rule="evenodd"/><path d="M7654.5 769.785 7816.79 607.5 7862.5 607.5 7700.21 769.785Z" fill="#E0E0E0" fill-rule="evenodd"/><path d="M7654.5 769.785 7816.79 607.5 7862.5 607.5 7862.5 1059.21 7700.21 1221.5 7654.5 1221.5ZM7654.5 769.785 7700.21 769.785 7862.5 607.5M7700.21 769.785 7700.21 1221.5" stroke="#192D54" stroke-width="4.58333" stroke-miterlimit="8" fill="none" fill-rule="evenodd"/><rect x="7646.5" y="149.006" width="45.4941" height="451.494" fill="#D9D9D9"/><path d="M7691.99 149.006 7853.5-12.4999 7853.5 438.994 7691.99 600.5Z" fill="#AEAEAE" fill-rule="evenodd"/><path d="M7646.5 149.006 7808.01-12.4999 7853.5-12.4999 7691.99 149.006Z" fill="#E0E0E0" fill-rule="evenodd"/><path d="M7646.5 149.006 7808.01-12.4999 7853.5-12.4999 7853.5 438.994 7691.99 600.5 7646.5 600.5ZM7646.5 149.006 7691.99 149.006 7853.5-12.4999M7691.99 149.006 7691.99 600.5" stroke="#192D54" stroke-width="4.58333" stroke-miterlimit="8" fill="none" fill-rule="evenodd"/><rect x="7630.5" y="-471.995" width="45.4941" height="452.495" fill="#D9D9D9"/><path d="M7675.99-471.995 7837.5-633.5 7837.5-181.005 7675.99-19.5002Z" fill="#AEAEAE" fill-rule="evenodd"/><path d="M7630.5-471.995 7792.01-633.5 7837.5-633.5 7675.99-471.995Z" fill="#E0E0E0" fill-rule="evenodd"/><path d="M7630.5-471.995 7792.01-633.5 7837.5-633.5 7837.5-181.005 7675.99-19.5002 7630.5-19.5002ZM7630.5-471.995 7675.99-471.995 7837.5-633.5M7675.99-471.995 7675.99-19.5002" stroke="#192D54" stroke-width="4.58333" stroke-miterlimit="8" fill="none" fill-rule="evenodd"/><rect x="7607.5" y="-1126.99" width="45.4941" height="452.495" fill="#D9D9D9"/><path d="M7652.99-1126.99 7814.5-1288.5 7814.5-836.005 7652.99-674.5Z" fill="#AEAEAE" fill-rule="evenodd"/><path d="M7607.5-1126.99 7769.01-1288.5 7814.5-1288.5 7652.99-1126.99Z" fill="#E0E0E0" fill-rule="evenodd"/><path d="M7607.5-1126.99 7769.01-1288.5 7814.5-1288.5 7814.5-836.005 7652.99-674.5 7607.5-674.5ZM7607.5-1126.99 7652.99-1126.99 7814.5-1288.5M7652.99-1126.99 7652.99-674.5" stroke="#192D54" stroke-width="4.58333" stroke-miterlimit="8" fill="none" fill-rule="evenodd"/><rect x="4319.5" y="-337.995" width="45.4941" height="452.495" fill="#B6C7EA"/><path d="M4364.99-337.995 4526.5-499.5 4526.5-47.0054 4364.99 114.5Z" fill="#92A0BC" fill-rule="evenodd"/><path d="M4319.5-337.995 4481.01-499.5 4526.5-499.5 4364.99-337.995Z" fill="#C4D2EE" fill-rule="evenodd"/><path d="M4319.5-337.995 4481.01-499.5 4526.5-499.5 4526.5-47.0054 4364.99 114.5 4319.5 114.5ZM4319.5-337.995 4364.99-337.995 4526.5-499.5M4364.99-337.995 4364.99 114.5" stroke="#192D54" stroke-width="4.58333" stroke-miterlimit="8" fill="none" fill-rule="evenodd"/><rect x="4364.5" y="-337.995" width="45.4941" height="452.495" fill="#D9D9D9"/><path d="M4409.99-337.995 4571.5-499.5 4571.5-47.0054 4409.99 114.5Z" fill="#AEAEAE" fill-rule="evenodd"/><path d="M4364.5-337.995 4526.01-499.5 4571.5-499.5 4409.99-337.995Z" fill="#E0E0E0" fill-rule="evenodd"/><path d="M4364.5-337.995 4526.01-499.5 4571.5-499.5 4571.5-47.0054 4409.99 114.5 4364.5 114.5ZM4364.5-337.995 4409.99-337.995 4571.5-499.5M4409.99-337.995 4409.99 114.5" stroke="#192D54" stroke-width="4.58333" stroke-miterlimit="8" fill="none" fill-rule="evenodd"/><path d="M0-6.875 273.15-6.875 273.15 216.695 259.4 216.695 259.4 0 266.275 6.875 0 6.875ZM286.9 209.82 266.275 251.07 245.65 209.82Z" fill="#F0AA93" transform="matrix(1 0 0 -1 4121 365.07)"/><rect x="3890.5" y="261.005" width="45.4941" height="452.495" fill="#B6C7EA"/><path d="M3935.99 261.005 4097.5 99.4998 4097.5 551.995 3935.99 713.5Z" fill="#92A0BC" fill-rule="evenodd"/><path d="M3890.5 261.005 4052.01 99.4998 4097.5 99.4998 3935.99 261.005Z" fill="#C4D2EE" fill-rule="evenodd"/><path d="M3890.5 261.005 4052.01 99.4998 4097.5 99.4998 4097.5 551.995 3935.99 713.5 3890.5 713.5ZM3890.5 261.005 3935.99 261.005 4097.5 99.4998M3935.99 261.005 3935.99 713.5" stroke="#192D54" stroke-width="4.58333" stroke-miterlimit="8" fill="none" fill-rule="evenodd"/><rect x="3935.5" y="259.786" width="45.7144" height="451.714" fill="#D9D9D9"/><path d="M3981.21 259.786 4143.5 97.5001 4143.5 549.214 3981.21 711.5Z" fill="#AEAEAE" fill-rule="evenodd"/><path d="M3935.5 259.786 4097.79 97.5001 4143.5 97.5001 3981.21 259.786Z" fill="#E0E0E0" fill-rule="evenodd"/><path d="M3935.5 259.786 4097.79 97.5001 4143.5 97.5001 4143.5 549.214 3981.21 711.5 3935.5 711.5ZM3935.5 259.786 3981.21 259.786 4143.5 97.5001M3981.21 259.786 3981.21 711.5" stroke="#192D54" stroke-width="4.58333" stroke-miterlimit="8" fill="none" fill-rule="evenodd"/><rect x="3388.5" y="800.005" width="45.4941" height="452.495" fill="#D9D9D9"/><path d="M3433.99 800.005 3595.5 638.5 3595.5 1090.99 3433.99 1252.5Z" fill="#AEAEAE" fill-rule="evenodd"/><path d="M3388.5 800.005 3550.01 638.5 3595.5 638.5 3433.99 800.005Z" fill="#E0E0E0" fill-rule="evenodd"/><path d="M3388.5 800.005 3550.01 638.5 3595.5 638.5 3595.5 1090.99 3433.99 1252.5 3388.5 1252.5ZM3388.5 800.005 3433.99 800.005 3595.5 638.5M3433.99 800.005 3433.99 1252.5" stroke="#192D54" stroke-width="4.58333" stroke-miterlimit="8" fill="none" fill-rule="evenodd"/><rect x="3379.5" y="179.005" width="45.4941" height="452.495" fill="#D9D9D9"/><path d="M3424.99 179.005 3586.5 17.5 3586.5 469.995 3424.99 631.5Z" fill="#AEAEAE" fill-rule="evenodd"/><path d="M3379.5 179.005 3541.01 17.5 3586.5 17.5 3424.99 179.005Z" fill="#E0E0E0" fill-rule="evenodd"/><path d="M3379.5 179.005 3541.01 17.5 3586.5 17.5 3586.5 469.995 3424.99 631.5 3379.5 631.5ZM3379.5 179.005 3424.99 179.005 3586.5 17.5M3424.99 179.005 3424.99 631.5" stroke="#192D54" stroke-width="4.58333" stroke-miterlimit="8" fill="none" fill-rule="evenodd"/><rect x="3363.5" y="-441.995" width="45.4941" height="452.495" fill="#D9D9D9"/><path d="M3408.99-441.995 3570.5-603.5 3570.5-151.005 3408.99 10.5001Z" fill="#AEAEAE" fill-rule="evenodd"/><path d="M3363.5-441.995 3525.01-603.5 3570.5-603.5 3408.99-441.995Z" fill="#E0E0E0" fill-rule="evenodd"/><path d="M3363.5-441.995 3525.01-603.5 3570.5-603.5 3570.5-151.005 3408.99 10.5001 3363.5 10.5001ZM3363.5-441.995 3408.99-441.995 3570.5-603.5M3408.99-441.995 3408.99 10.5001" stroke="#192D54" stroke-width="4.58333" stroke-miterlimit="8" fill="none" fill-rule="evenodd"/><rect x="3340.5" y="-1096.99" width="45.4941" height="452.495" fill="#D9D9D9"/><path d="M3385.99-1096.99 3547.5-1258.5 3547.5-806.005 3385.99-644.5Z" fill="#AEAEAE" fill-rule="evenodd"/><path d="M3340.5-1096.99 3502.01-1258.5 3547.5-1258.5 3385.99-1096.99Z" fill="#E0E0E0" fill-rule="evenodd"/><path d="M3340.5-1096.99 3502.01-1258.5 3547.5-1258.5 3547.5-806.005 3385.99-644.5 3340.5-644.5ZM3340.5-1096.99 3385.99-1096.99 3547.5-1258.5M3385.99-1096.99 3385.99-644.5" stroke="#192D54" stroke-width="4.58333" stroke-miterlimit="8" fill="none" fill-rule="evenodd"/><rect x="5774.5" y="186.785" width="45.7144" height="451.714" fill="#AFBADC"/><path d="M5820.21 186.785 5982.5 24.4999 5982.5 476.214 5820.21 638.5Z" fill="#8D96B1" fill-rule="evenodd"/><path d="M5774.5 186.785 5936.79 24.4999 5982.5 24.4999 5820.21 186.785Z" fill="#BFC8E3" fill-rule="evenodd"/><path d="M5774.5 186.785 5936.79 24.4999 5982.5 24.4999 5982.5 476.214 5820.21 638.5 5774.5 638.5ZM5774.5 186.785 5820.21 186.785 5982.5 24.4999M5820.21 186.785 5820.21 638.5" stroke="#192D54" stroke-width="4.58333" stroke-miterlimit="8" fill="none" fill-rule="evenodd"/><rect x="5758.5" y="-434.214" width="45.7144" height="451.714" fill="#C8E5B3"/><path d="M5804.21-434.214 5966.5-596.5 5966.5-144.786 5804.21 17.5Z" fill="#A1B890" fill-rule="evenodd"/><path d="M5758.5-434.214 5920.79-596.5 5966.5-596.5 5804.21-434.214Z" fill="#D3EAC2" fill-rule="evenodd"/><path d="M5758.5-434.214 5920.79-596.5 5966.5-596.5 5966.5-144.786 5804.21 17.5 5758.5 17.5ZM5758.5-434.214 5804.21-434.214 5966.5-596.5M5804.21-434.214 5804.21 17.5" stroke="#192D54" stroke-width="4.58333" stroke-miterlimit="8" fill="none" fill-rule="evenodd"/><rect x="5735.5" y="-1089.21" width="45.7144" height="451.714" fill="#F0AA93"/><path d="M5781.21-1089.21 5943.5-1251.5 5943.5-799.786 5781.21-637.5Z" fill="#C18976" fill-rule="evenodd"/><path d="M5735.5-1089.21 5897.79-1251.5 5943.5-1251.5 5781.21-1089.21Z" fill="#F3BBA8" fill-rule="evenodd"/><path d="M5735.5-1089.21 5897.79-1251.5 5943.5-1251.5 5943.5-799.786 5781.21-637.5 5735.5-637.5ZM5735.5-1089.21 5781.21-1089.21 5943.5-1251.5M5781.21-1089.21 5781.21-637.5" stroke="#192D54" stroke-width="4.58333" stroke-miterlimit="8" fill="none" fill-rule="evenodd"/><rect x="5108.5" y="276.005" width="45.4941" height="452.495" fill="#D9D9D9"/><path d="M5153.99 276.005 5315.5 114.5 5315.5 566.995 5153.99 728.5Z" fill="#AEAEAE" fill-rule="evenodd"/><path d="M5108.5 276.005 5270.01 114.5 5315.5 114.5 5153.99 276.005Z" fill="#E0E0E0" fill-rule="evenodd"/><path d="M5108.5 276.005 5270.01 114.5 5315.5 114.5 5315.5 566.995 5153.99 728.5 5108.5 728.5ZM5108.5 276.005 5153.99 276.005 5315.5 114.5M5153.99 276.005 5153.99 728.5" stroke="#192D54" stroke-width="4.58333" stroke-miterlimit="8" fill="none" fill-rule="evenodd"/><rect x="5099.5" y="-370.995" width="45.4941" height="452.495" fill="#D9D9D9"/><path d="M5144.99-370.995 5306.5-532.5 5306.5-80.0054 5144.99 81.4999Z" fill="#AEAEAE" fill-rule="evenodd"/><path d="M5099.5-370.995 5261.01-532.5 5306.5-532.5 5144.99-370.995Z" fill="#E0E0E0" fill-rule="evenodd"/><path d="M5099.5-370.995 5261.01-532.5 5306.5-532.5 5306.5-80.0054 5144.99 81.4999 5099.5 81.4999ZM5099.5-370.995 5144.99-370.995 5306.5-532.5M5144.99-370.995 5144.99 81.4999" stroke="#192D54" stroke-width="4.58333" stroke-miterlimit="8" fill="none" fill-rule="evenodd"/><text font-family="Calibri,Calibri_MSFontService,sans-serif" font-weight="400" font-size="165" transform="matrix(1 0 0 1 4748.67 1469)">(b) Multi</text><text font-family="Calibri,Calibri_MSFontService,sans-serif" font-weight="400" font-size="165" transform="matrix(1 0 0 1 5330.18 1469)">-</text><text font-family="Calibri,Calibri_MSFontService,sans-serif" font-weight="400" font-size="165" transform="matrix(1 0 0 1 5380.6 1469)">scale Fusion Block</text><rect x="2660" y="1576" width="6600" height="1879" fill="#DAE3F5"/><rect x="4511.5" y="2020.5" width="184" height="912" stroke="#000000" stroke-width="4.58333" stroke-miterlimit="8" fill="#B6C7EA"/><text font-family="Microsoft YaHei,Microsoft YaHei_MSFontService,sans-serif" font-weight="400" font-size="92" transform="matrix(-1.83697e-16 -1 1 -1.83697e-16 4638.65 2839)">3x3 Conv rate=1</text><rect x="4821.5" y="2020.5" width="184" height="912" stroke="#000000" stroke-width="4.58333" stroke-miterlimit="8" fill="#F2F2F2"/><text font-family="Microsoft YaHei,Microsoft YaHei_MSFontService,sans-serif" font-weight="400" font-size="92" transform="matrix(-1.83697e-16 -1 1 -1.83697e-16 4949.35 2542)">BN</text><rect x="5135.5" y="2020.5" width="184" height="912" stroke="#000000" stroke-width="4.58333" stroke-miterlimit="8" fill="#E3F2D9"/><text font-family="Microsoft YaHei,Microsoft YaHei_MSFontService,sans-serif" font-weight="400" font-size="92" transform="matrix(-1.83697e-16 -1 1 -1.83697e-16 5262.6 2704)">DropBlock</text><rect x="5449.5" y="2020.5" width="184" height="912" stroke="#000000" stroke-width="4.58333" stroke-miterlimit="8" fill="#DFE3F1"/><text font-family="Microsoft YaHei,Microsoft YaHei_MSFontService,sans-serif" font-weight="400" font-size="92" transform="matrix(-1.83697e-16 -1 1 -1.83697e-16 5576.82 2695)">LeakyRelu</text><rect x="5813.5" y="2020.5" width="184" height="912" stroke="#000000" stroke-width="4.58333" stroke-miterlimit="8" fill="#B6C7EA"/><text font-family="Microsoft YaHei,Microsoft YaHei_MSFontService,sans-serif" font-weight="400" font-size="92" transform="matrix(-1.83697e-16 -1 1 -1.83697e-16 5941.12 2839)">3x3 Conv rate=1</text><rect x="6162.5" y="2020.5" width="184" height="912" stroke="#000000" stroke-width="4.58333" stroke-miterlimit="8" fill="#F2F2F2"/><text font-family="Microsoft YaHei,Microsoft YaHei_MSFontService,sans-serif" font-weight="400" font-size="92" transform="matrix(-1.83697e-16 -1 1 -1.83697e-16 6290.16 2542)">BN</text><rect x="6511.5" y="2020.5" width="184" height="912" stroke="#000000" stroke-width="4.58333" stroke-miterlimit="8" fill="#E3F2D9"/><text font-family="Microsoft YaHei,Microsoft YaHei_MSFontService,sans-serif" font-weight="400" font-size="92" transform="matrix(-1.83697e-16 -1 1 -1.83697e-16 6638.74 2704)">DropBlock</text><rect x="7044.5" y="2020.5" width="184" height="912" stroke="#000000" stroke-width="4.58333" stroke-miterlimit="8" fill="#DFE3F1"/><text font-family="Microsoft YaHei,Microsoft YaHei_MSFontService,sans-serif" font-weight="400" font-size="92" transform="matrix(-1.83697e-16 -1 1 -1.83697e-16 7171.85 2695)">LeakyRelu</text><path d="M4173.5 2473.06 4488.19 2473.06 4488.19 2479.94 4173.5 2479.94ZM4483.61 2462.75 4511.11 2476.5 4483.61 2490.25Z"/><path d="M2.93896e-05-3.4375 103.717-3.43661 103.716 3.43839-2.93896e-05 3.4375ZM99.1333-13.7492 126.633 0.00108268 99.1331 13.7508Z" transform="matrix(1 0 0 -1 4695.5 2476.5)"/><path d="M5005.5 2473.06 5111.77 2473.06 5111.77 2479.94 5005.5 2479.94ZM5107.18 2462.75 5134.68 2476.5 5107.18 2490.25Z"/><path d="M3.81253e-05-3.4375 107.24-3.43631 107.24 3.43869-3.81253e-05 3.4375ZM102.657-13.7489 130.157 0.00144357 102.657 13.7511Z" transform="matrix(1 0 0 -1 5319.5 2476.5)"/><path d="M6346.5 2473.06 6488.1 2473.06 6488.1 2479.94 6346.5 2479.94ZM6483.52 2462.75 6511.02 2476.5 6483.52 2490.25Z"/><path d="M6890 2427 6890 2525M6839 2476 6941 2476" stroke="#192D54" stroke-width="10.3125" stroke-miterlimit="8" fill="none" fill-rule="evenodd"/><path d="M6839 2476C6839 2448.94 6861.83 2427 6890 2427 6918.17 2427 6941 2448.94 6941 2476 6941 2503.06 6918.17 2525 6890 2525 6861.83 2525 6839 2503.06 6839 2476Z" stroke="#192D54" stroke-width="10.3125" stroke-miterlimit="8" fill="none" fill-rule="evenodd"/><path d="M6695.5 2473.06 6817.22 2473.06 6817.22 2479.94 6695.5 2479.94ZM6812.63 2462.75 6840.13 2476.5 6812.63 2490.25Z"/><path d="M2.42466e-05-3.4375 79.4126-3.43694 79.4125 3.43806-2.42466e-05 3.4375ZM74.8293-13.7495 102.329 0.000721785 74.8291 13.7505Z" transform="matrix(1 0 0 -1 6941.5 2476.5)"/><path d="M0-3.4375 10.3844-3.4375 10.3844 675.307 6.94689 671.87 1167.48 671.87 1164.04 675.307 1164.04 71.9058 1170.91 71.9058 1170.91 678.745 3.50939 678.745 3.50939 0 6.94689 3.4375 0 3.4375ZM1153.73 76.489 1167.48 48.989 1181.23 76.489Z" transform="matrix(1 0 0 -1 5723.5 2476.49)"/><path d="M5633.5 2473.06 5790.82 2473.06 5790.82 2479.94 5633.5 2479.94ZM5786.23 2462.75 5813.73 2476.5 5786.23 2490.25Z"/><path d="M5997.5 2473.06 6139.55 2473.06 6139.55 2479.94 5997.5 2479.94ZM6134.97 2462.75 6162.47 2476.5 6134.97 2490.25Z"/><text font-family="Calibri,Calibri_MSFontService,sans-serif" font-weight="400" font-size="165" transform="matrix(1 0 0 1 4752.71 3217)">(c) Dilation Residual Block , rate=1</text><path d="M2660-1487 2672.11 3454.85" stroke="#F0AA93" stroke-width="13.75" stroke-miterlimit="8" stroke-dasharray="110 41.25" fill="none" fill-rule="evenodd"/><path d="M0 0 6627.88 15.1672" stroke="#F0AA93" stroke-width="13.75" stroke-miterlimit="8" stroke-dasharray="110 41.25" fill="none" fill-rule="evenodd" transform="matrix(1 0 0 -1 -3991 2214.17)"/><path d="M0 0 6627.88 15.1672" stroke="#F0AA93" stroke-width="13.75" stroke-miterlimit="8" stroke-dasharray="110 41.25" fill="none" fill-rule="evenodd" transform="matrix(1 0 0 -1 2671 1586.17)"/><rect x="-3991" y="-1491" width="13251" height="4956" stroke="#F0AA93" stroke-width="13.75" stroke-miterlimit="8" stroke-dasharray="110 41.25" fill="none"/></g></svg>