<svg width="4727" height="1470" xmlns="http://www.w3.org/2000/svg" xmlns:xlink="http://www.w3.org/1999/xlink" xml:space="preserve" overflow="hidden"><g transform="translate(-104 -211)"><rect x="249.5" y="778.873" width="38.6271" height="732.627" fill="#DFE3F1"/><path d="M288.127 778.873 678.5 388.5 678.5 1121.13 288.127 1511.5Z" fill="#B3B6C2" fill-rule="evenodd"/><path d="M249.5 778.873 639.873 388.5 678.5 388.5 288.127 778.873Z" fill="#E5E8F4" fill-rule="evenodd"/><path d="M249.5 778.873 639.873 388.5 678.5 388.5 678.5 1121.13 288.127 1511.5 249.5 1511.5ZM249.5 778.873 288.127 778.873 678.5 388.5M288.127 778.873 288.127 1511.5" stroke="#000000" stroke-width="4.58333" stroke-miterlimit="8" fill="none" fill-rule="evenodd"/><rect x="358" y="812.92" width="1.0802" height="39.0804" fill="#00B0F0"/><path d="M359.08 812.92 380 792 380 831.08 359.08 852Z" fill="#008DC1" fill-rule="evenodd"/><path d="M358 812.92 378.92 792 380 792 359.08 812.92Z" fill="#32BFF3" fill-rule="evenodd"/><rect x="336" y="835.92" width="1.08017" height="39.0801" fill="#00B0F0"/><path d="M337.08 835.92 358 815 358 854.08 337.08 875Z" fill="#008DC1" fill-rule="evenodd"/><path d="M336 835.92 356.92 815 358 815 337.08 835.92Z" fill="#32BFF3" fill-rule="evenodd"/><rect x="336" y="874.92" width="1.08017" height="40.0804" fill="#00B0F0"/><path d="M337.08 874.92 358 854 358 894.08 337.08 915Z" fill="#008DC1" fill-rule="evenodd"/><path d="M336 874.92 356.92 854 358 854 337.08 874.92Z" fill="#32BFF3" fill-rule="evenodd"/><rect x="358" y="852.92" width="1.08017" height="40.0804" fill="#00B0F0"/><path d="M359.08 852.92 380 832 380 872.08 359.08 893Z" fill="#008DC1" fill-rule="evenodd"/><path d="M358 852.92 378.92 832 380 832 359.08 852.92Z" fill="#32BFF3" fill-rule="evenodd"/><rect x="380" y="790.92" width="1.08017" height="40.0801" fill="#00B0F0"/><path d="M381.08 790.92 402 770 402 810.08 381.08 831Z" fill="#008DC1" fill-rule="evenodd"/><path d="M380 790.92 400.92 770 402 770 381.08 790.92Z" fill="#32BFF3" fill-rule="evenodd"/><rect x="380" y="831.92" width="1.0802" height="39.0804" fill="#00B0F0"/><path d="M381.08 831.92 402 811 402 850.08 381.08 871Z" fill="#008DC1" fill-rule="evenodd"/><path d="M380 831.92 400.92 811 402 811 381.08 831.92Z" fill="#32BFF3" fill-rule="evenodd"/><rect x="336" y="915.92" width="1.08017" height="39.0801" fill="#00B0F0"/><path d="M337.08 915.92 358 895 358 934.08 337.08 955Z" fill="#008DC1" fill-rule="evenodd"/><path d="M336 915.92 356.92 895 358 895 337.08 915.92Z" fill="#32BFF3" fill-rule="evenodd"/><rect x="358" y="892.92" width="1.08017" height="40.0801" fill="#00B0F0"/><path d="M359.08 892.92 380 872 380 912.08 359.08 933Z" fill="#008DC1" fill-rule="evenodd"/><path d="M358 892.92 378.92 872 380 872 359.08 892.92Z" fill="#32BFF3" fill-rule="evenodd"/><rect x="380" y="871.92" width="1.08017" height="39.0801" fill="#00B0F0"/><path d="M381.08 871.92 402 851 402 890.08 381.08 911Z" fill="#008DC1" fill-rule="evenodd"/><path d="M380 871.92 400.92 851 402 851 381.08 871.92Z" fill="#32BFF3" fill-rule="evenodd"/><path d="M401.5 773.5 941.144 808.787" stroke="#5E75BA" stroke-width="4.58333" stroke-miterlimit="8" fill="none" fill-rule="evenodd"/><path d="M0 0 566.366 36.0001" stroke="#5E75BA" stroke-width="4.58333" stroke-miterlimit="8" fill="none" fill-rule="evenodd" transform="matrix(1 0 0 -1 402.5 890.5)"/><path d="M0 0 606.625 75.5997" stroke="#5E75BA" stroke-width="4.58333" stroke-miterlimit="8" fill="none" fill-rule="evenodd" transform="matrix(1 0 0 -1 336.5 955.1)"/><path d="M336.5 836.5 939.778 841.459" stroke="#5E75BA" stroke-width="4.58333" stroke-miterlimit="8" fill="none" fill-rule="evenodd"/><rect x="852.5" y="787.783" width="38.7168" height="731.717" fill="#DFE3F1"/><path d="M891.217 787.783 1282.5 396.5 1282.5 1128.22 891.217 1519.5Z" fill="#B3B6C2" fill-rule="evenodd"/><path d="M852.5 787.783 1243.78 396.5 1282.5 396.5 891.217 787.783Z" fill="#E5E8F4" fill-rule="evenodd"/><path d="M852.5 787.783 1243.78 396.5 1282.5 396.5 1282.5 1128.22 891.217 1519.5 852.5 1519.5ZM852.5 787.783 891.217 787.783 1282.5 396.5M891.217 787.783 891.217 1519.5" stroke="#000000" stroke-width="4.58333" stroke-miterlimit="8" fill="none" fill-rule="evenodd"/><rect x="968" y="806.773" width="1.22748" height="45.2275" fill="#FFFFFF"/><path d="M969.227 806.773 993 783 993 828.228 969.227 852Z" fill="#CDCDCD" fill-rule="evenodd"/><path d="M968 806.773 991.773 783 993 783 969.227 806.773Z" fill="#FFFFFF" fill-rule="evenodd"/><rect x="942" y="833.723" width="1.27661" height="44.2767" fill="#00B0F0"/><path d="M943.276 833.723 968 809 968 853.276 943.276 878Z" fill="#008DC1" fill-rule="evenodd"/><path d="M942 833.723 966.723 809 968 809 943.276 833.723Z" fill="#32BFF3" fill-rule="evenodd"/><rect x="942" y="879.723" width="1.27661" height="44.2767" fill="#FFFFFF"/><path d="M943.276 879.723 968 855 968 899.277 943.276 924Z" fill="#CDCDCD" fill-rule="evenodd"/><path d="M942 879.723 966.723 855 968 855 943.276 879.723Z" fill="#FFFFFF" fill-rule="evenodd"/><rect x="968" y="852.773" width="1.22754" height="46.2272" fill="#FFFFFF"/><path d="M969.228 852.773 993 829 993 875.227 969.228 899Z" fill="#CDCDCD" fill-rule="evenodd"/><path d="M968 852.773 991.773 829 993 829 969.228 852.773Z" fill="#FFFFFF" fill-rule="evenodd"/><rect x="993" y="783.674" width="1.32568" height="43.326" fill="#00B0F0"/><path d="M994.326 783.674 1020 758 1020 801.326 994.326 827Z" fill="#008DC1" fill-rule="evenodd"/><path d="M993 783.674 1018.67 758 1020 758 994.326 783.674Z" fill="#32BFF3" fill-rule="evenodd"/><rect x="993" y="828.723" width="1.27661" height="45.277" fill="#FFFFFF"/><path d="M994.277 828.723 1019 804 1019 849.277 994.277 874Z" fill="#CDCDCD" fill-rule="evenodd"/><path d="M993 828.723 1017.72 804 1019 804 994.277 828.723Z" fill="#FFFFFF" fill-rule="evenodd"/><rect x="942" y="925.723" width="1.27661" height="45.277" fill="#00B0F0"/><path d="M943.276 925.723 968 901 968 946.277 943.276 971Z" fill="#008DC1" fill-rule="evenodd"/><path d="M942 925.723 966.723 901 968 901 943.276 925.723Z" fill="#32BFF3" fill-rule="evenodd"/><rect x="968" y="899.772" width="1.22748" height="45.2275" fill="#FFFFFF"/><path d="M969.227 899.772 993 876 993 921.227 969.227 945Z" fill="#CDCDCD" fill-rule="evenodd"/><path d="M968 899.772 991.773 876 993 876 969.227 899.772Z" fill="#FFFFFF" fill-rule="evenodd"/><rect x="993" y="875.723" width="1.27661" height="44.2764" fill="#00B0F0"/><path d="M994.277 875.723 1019 851 1019 895.277 994.277 920Z" fill="#008DC1" fill-rule="evenodd"/><path d="M993 875.723 1017.72 851 1019 851 994.277 875.723Z" fill="#32BFF3" fill-rule="evenodd"/><rect x="1019" y="754.723" width="1.27661" height="45.2767" fill="#00B0F0"/><path d="M1020.28 754.723 1045 730 1045 775.277 1020.28 800Z" fill="#008DC1" fill-rule="evenodd"/><path d="M1019 754.723 1043.72 730 1045 730 1020.28 754.723Z" fill="#32BFF3" fill-rule="evenodd"/><rect x="1019" y="801.723" width="1.27661" height="44.2767" fill="#FFFFFF"/><path d="M1020.28 801.723 1045 777 1045 821.277 1020.28 846Z" fill="#CDCDCD" fill-rule="evenodd"/><path d="M1019 801.723 1043.72 777 1045 777 1020.28 801.723Z" fill="#FFFFFF" fill-rule="evenodd"/><rect x="1045" y="729.723" width="1.27661" height="45.277" fill="#00B0F0"/><path d="M1046.28 729.723 1071 705 1071 750.277 1046.28 775Z" fill="#008DC1" fill-rule="evenodd"/><path d="M1045 729.723 1069.72 705 1071 705 1046.28 729.723Z" fill="#32BFF3" fill-rule="evenodd"/><rect x="1045" y="776.723" width="1.27661" height="44.2764" fill="#FFFFFF"/><path d="M1046.28 776.723 1071 752 1071 796.277 1046.28 821Z" fill="#CDCDCD" fill-rule="evenodd"/><path d="M1045 776.723 1069.72 752 1071 752 1046.28 776.723Z" fill="#FFFFFF" fill-rule="evenodd"/><rect x="1019" y="847.723" width="1.27661" height="44.2767" fill="#FFFFFF"/><path d="M1020.28 847.723 1045 823 1045 867.277 1020.28 892Z" fill="#CDCDCD" fill-rule="evenodd"/><path d="M1019 847.723 1043.72 823 1045 823 1020.28 847.723Z" fill="#FFFFFF" fill-rule="evenodd"/><rect x="1045" y="822.723" width="1.27661" height="44.2767" fill="#00B0F0"/><path d="M1046.28 822.723 1071 798 1071 842.276 1046.28 867Z" fill="#008DC1" fill-rule="evenodd"/><path d="M1045 822.723 1069.72 798 1071 798 1046.28 822.723Z" fill="#32BFF3" fill-rule="evenodd"/><rect x="942" y="973.723" width="1.27661" height="44.2764" fill="#FFFFFF"/><path d="M943.276 973.723 968 949 968 993.277 943.276 1018Z" fill="#CDCDCD" fill-rule="evenodd"/><path d="M942 973.723 966.723 949 968 949 943.276 973.723Z" fill="#FFFFFF" fill-rule="evenodd"/><rect x="968" y="946.773" width="1.22754" height="46.2275" fill="#FFFFFF"/><path d="M969.228 946.773 993 923 993 969.227 969.228 993Z" fill="#CDCDCD" fill-rule="evenodd"/><path d="M968 946.773 991.773 923 993 923 969.228 946.773Z" fill="#FFFFFF" fill-rule="evenodd"/><rect x="993" y="922.723" width="1.27661" height="45.277" fill="#FFFFFF"/><path d="M994.277 922.723 1019 898 1019 943.277 994.277 968Z" fill="#CDCDCD" fill-rule="evenodd"/><path d="M993 922.723 1017.72 898 1019 898 994.277 922.723Z" fill="#FFFFFF" fill-rule="evenodd"/><rect x="942" y="1019.72" width="1.27661" height="44.2764" fill="#00B0F0"/><path d="M943.276 1019.72 968 995 968 1039.28 943.276 1064Z" fill="#008DC1" fill-rule="evenodd"/><path d="M942 1019.72 966.723 995 968 995 943.276 1019.72Z" fill="#32BFF3" fill-rule="evenodd"/><rect x="968" y="992.773" width="1.22754" height="46.2275" fill="#FFFFFF"/><path d="M969.228 992.773 993 969 993 1015.23 969.228 1039Z" fill="#CDCDCD" fill-rule="evenodd"/><path d="M968 992.773 991.773 969 993 969 969.228 992.773Z" fill="#FFFFFF" fill-rule="evenodd"/><rect x="993" y="969.723" width="1.27661" height="44.2767" fill="#00B0F0"/><path d="M994.277 969.723 1019 945 1019 989.277 994.277 1014Z" fill="#008DC1" fill-rule="evenodd"/><path d="M993 969.723 1017.72 945 1019 945 994.277 969.723Z" fill="#32BFF3" fill-rule="evenodd"/><rect x="1019" y="895.724" width="1.27661" height="44.2767" fill="#FFFFFF"/><path d="M1020.28 895.724 1045 871 1045 915.277 1020.28 940Z" fill="#CDCDCD" fill-rule="evenodd"/><path d="M1019 895.724 1043.72 871 1045 871 1020.28 895.724Z" fill="#FFFFFF" fill-rule="evenodd"/><rect x="1045" y="870.723" width="1.27661" height="44.2767" fill="#FFFFFF"/><path d="M1046.28 870.723 1071 846 1071 890.277 1046.28 915Z" fill="#CDCDCD" fill-rule="evenodd"/><path d="M1045 870.723 1069.72 846 1071 846 1046.28 870.723Z" fill="#FFFFFF" fill-rule="evenodd"/><rect x="1019" y="941.723" width="1.27661" height="44.2764" fill="#FFFFFF"/><path d="M1020.28 941.723 1045 917 1045 961.277 1020.28 986Z" fill="#CDCDCD" fill-rule="evenodd"/><path d="M1019 941.723 1043.72 917 1045 917 1020.28 941.723Z" fill="#FFFFFF" fill-rule="evenodd"/><rect x="1045" y="916.724" width="1.27661" height="44.2767" fill="#00B0F0"/><path d="M1046.28 916.724 1071 892 1071 936.277 1046.28 961Z" fill="#008DC1" fill-rule="evenodd"/><path d="M1045 916.724 1069.72 892 1071 892 1046.28 916.724Z" fill="#32BFF3" fill-rule="evenodd"/><rect x="1019" y="753.723" width="1.27661" height="45.2767" fill="#FFFFFF"/><path d="M1020.28 753.723 1045 729 1045 774.277 1020.28 799Z" fill="#CDCDCD" fill-rule="evenodd"/><path d="M1019 753.723 1043.72 729 1045 729 1020.28 753.723Z" fill="#FFFFFF" fill-rule="evenodd"/><path d="M1071.5 709.5 1579.78 785.57" stroke="#4874CB" stroke-width="4.58333" stroke-miterlimit="8" fill="none" fill-rule="evenodd"/><path d="M0 0 623.811 14.7832" stroke="#4874CB" stroke-width="4.58333" stroke-miterlimit="8" fill="none" fill-rule="evenodd" transform="matrix(1 0 0 -1 943.5 834.283)"/><path d="M0 0 623.811 190.719" stroke="#4874CB" stroke-width="4.58333" stroke-miterlimit="8" fill="none" fill-rule="evenodd" transform="matrix(1 0 0 -1 943.5 1065.22)"/><path d="M0 0 530.184 96.7076" stroke="#4874CB" stroke-width="4.58333" stroke-miterlimit="8" fill="none" fill-rule="evenodd" transform="matrix(1 0 0 -1 1067.5 940.208)"/><rect x="1486.5" y="799.873" width="38.6271" height="732.627" fill="#DFE3F1"/><path d="M1525.13 799.873 1915.5 409.5 1915.5 1142.13 1525.13 1532.5Z" fill="#B3B6C2" fill-rule="evenodd"/><path d="M1486.5 799.873 1876.87 409.5 1915.5 409.5 1525.13 799.873Z" fill="#E5E8F4" fill-rule="evenodd"/><path d="M1486.5 799.873 1876.87 409.5 1915.5 409.5 1915.5 1142.13 1525.13 1532.5 1486.5 1532.5ZM1486.5 799.873 1525.13 799.873 1915.5 409.5M1525.13 799.873 1525.13 1532.5" stroke="#000000" stroke-width="4.58333" stroke-miterlimit="8" fill="none" fill-rule="evenodd"/><rect x="1597" y="786.527" width="1.47302" height="54.4733" fill="#FFFFFF"/><path d="M1598.47 786.527 1627 758 1627 812.473 1598.47 841Z" fill="#CDCDCD" fill-rule="evenodd"/><path d="M1597 786.527 1625.53 758 1627 758 1598.47 786.527Z" fill="#FFFFFF" fill-rule="evenodd"/><rect x="1566" y="818.478" width="1.52209" height="53.5224" fill="#00B0F0"/><path d="M1567.52 818.478 1597 789 1597 842.522 1567.52 872Z" fill="#008DC1" fill-rule="evenodd"/><path d="M1566 818.478 1595.48 789 1597 789 1567.52 818.478Z" fill="#32BFF3" fill-rule="evenodd"/><rect x="1566" y="873.478" width="1.52209" height="54.5225" fill="#FFFFFF"/><path d="M1567.52 873.478 1597 844 1597 898.522 1567.52 928Z" fill="#CDCDCD" fill-rule="evenodd"/><path d="M1566 873.478 1595.48 844 1597 844 1567.52 873.478Z" fill="#FFFFFF" fill-rule="evenodd"/><rect x="1597" y="842.527" width="1.47302" height="54.4731" fill="#FFFFFF"/><path d="M1598.47 842.527 1627 814 1627 868.473 1598.47 897Z" fill="#CDCDCD" fill-rule="evenodd"/><path d="M1597 842.527 1625.53 814 1627 814 1598.47 842.527Z" fill="#FFFFFF" fill-rule="evenodd"/><rect x="1627" y="759.38" width="1.62036" height="51.6202" fill="#FFFFFF"/><path d="M1628.62 759.38 1660 728 1660 779.62 1628.62 811Z" fill="#CDCDCD" fill-rule="evenodd"/><path d="M1627 759.38 1658.38 728 1660 728 1628.62 759.38Z" fill="#FFFFFF" fill-rule="evenodd"/><rect x="1627" y="813.478" width="1.52209" height="53.5222" fill="#FFFFFF"/><path d="M1628.52 813.478 1658 784 1658 837.522 1628.52 867Z" fill="#CDCDCD" fill-rule="evenodd"/><path d="M1627 813.478 1656.48 784 1658 784 1628.52 813.478Z" fill="#FFFFFF" fill-rule="evenodd"/><rect x="1566" y="929.478" width="1.52209" height="53.5224" fill="#FFFFFF"/><path d="M1567.52 929.478 1597 900 1597 953.522 1567.52 983Z" fill="#CDCDCD" fill-rule="evenodd"/><path d="M1566 929.478 1595.48 900 1597 900 1567.52 929.478Z" fill="#FFFFFF" fill-rule="evenodd"/><rect x="1597" y="897.527" width="1.47302" height="54.4731" fill="#FFFFFF"/><path d="M1598.47 897.527 1627 869 1627 923.473 1598.47 952Z" fill="#CDCDCD" fill-rule="evenodd"/><path d="M1597 897.527 1625.53 869 1627 869 1598.47 897.527Z" fill="#FFFFFF" fill-rule="evenodd"/><rect x="1627" y="868.478" width="1.52209" height="54.5222" fill="#FFFFFF"/><path d="M1628.52 868.478 1658 839 1658 893.522 1628.52 923Z" fill="#CDCDCD" fill-rule="evenodd"/><path d="M1627 868.478 1656.48 839 1658 839 1628.52 868.478Z" fill="#FFFFFF" fill-rule="evenodd"/><rect x="1658" y="724.478" width="1.52209" height="53.5222" fill="#00B0F0"/><path d="M1659.52 724.478 1689 695 1689 748.522 1659.52 778Z" fill="#008DC1" fill-rule="evenodd"/><path d="M1658 724.478 1687.48 695 1689 695 1659.52 724.478Z" fill="#32BFF3" fill-rule="evenodd"/><rect x="1658" y="780.478" width="1.52209" height="53.5222" fill="#FFFFFF"/><path d="M1659.52 780.478 1689 751 1689 804.522 1659.52 834Z" fill="#CDCDCD" fill-rule="evenodd"/><path d="M1658 780.478 1687.48 751 1689 751 1659.52 780.478Z" fill="#FFFFFF" fill-rule="evenodd"/><rect x="1689" y="694.478" width="1.52209" height="53.5222" fill="#FFFFFF"/><path d="M1690.52 694.478 1720 665 1720 718.522 1690.52 748Z" fill="#CDCDCD" fill-rule="evenodd"/><path d="M1689 694.478 1718.48 665 1720 665 1690.52 694.478Z" fill="#FFFFFF" fill-rule="evenodd"/><rect x="1689" y="750.478" width="1.52209" height="53.5224" fill="#FFFFFF"/><path d="M1690.52 750.478 1720 721 1720 774.522 1690.52 804Z" fill="#CDCDCD" fill-rule="evenodd"/><path d="M1689 750.478 1718.48 721 1720 721 1690.52 750.478Z" fill="#FFFFFF" fill-rule="evenodd"/><rect x="1658" y="835.478" width="1.52209" height="53.5222" fill="#FFFFFF"/><path d="M1659.52 835.478 1689 806 1689 859.522 1659.52 889Z" fill="#CDCDCD" fill-rule="evenodd"/><path d="M1658 835.478 1687.48 806 1689 806 1659.52 835.478Z" fill="#FFFFFF" fill-rule="evenodd"/><rect x="1689" y="805.478" width="1.52209" height="53.5224" fill="#FFFFFF"/><path d="M1690.52 805.478 1720 776 1720 829.522 1690.52 859Z" fill="#CDCDCD" fill-rule="evenodd"/><path d="M1689 805.478 1718.48 776 1720 776 1690.52 805.478Z" fill="#FFFFFF" fill-rule="evenodd"/><rect x="1566" y="986.478" width="1.52209" height="53.5222" fill="#00B0F0"/><path d="M1567.52 986.478 1597 957 1597 1010.52 1567.52 1040Z" fill="#008DC1" fill-rule="evenodd"/><path d="M1566 986.478 1595.48 957 1597 957 1567.52 986.478Z" fill="#32BFF3" fill-rule="evenodd"/><rect x="1597" y="954.527" width="1.47302" height="55.4728" fill="#FFFFFF"/><path d="M1598.47 954.527 1627 926 1627 981.473 1598.47 1010Z" fill="#CDCDCD" fill-rule="evenodd"/><path d="M1597 954.527 1625.53 926 1627 926 1598.47 954.527Z" fill="#FFFFFF" fill-rule="evenodd"/><rect x="1627" y="925.478" width="1.52209" height="54.5222" fill="#FFFFFF"/><path d="M1628.52 925.478 1658 896 1658 950.522 1628.52 980Z" fill="#CDCDCD" fill-rule="evenodd"/><path d="M1627 925.478 1656.48 896 1658 896 1628.52 925.478Z" fill="#FFFFFF" fill-rule="evenodd"/><rect x="1566" y="1041.48" width="1.52209" height="54.5222" fill="#FFFFFF"/><path d="M1567.52 1041.48 1597 1012 1597 1066.52 1567.52 1096Z" fill="#CDCDCD" fill-rule="evenodd"/><path d="M1566 1041.48 1595.48 1012 1597 1012 1567.52 1041.48Z" fill="#FFFFFF" fill-rule="evenodd"/><rect x="1597" y="1010.53" width="1.47302" height="54.4731" fill="#FFFFFF"/><path d="M1598.47 1010.53 1627 982 1627 1036.47 1598.47 1065Z" fill="#CDCDCD" fill-rule="evenodd"/><path d="M1597 1010.53 1625.53 982 1627 982 1598.47 1010.53Z" fill="#FFFFFF" fill-rule="evenodd"/><rect x="1627" y="981.478" width="1.52209" height="53.5224" fill="#FFFFFF"/><path d="M1628.52 981.478 1658 952 1658 1005.52 1628.52 1035Z" fill="#CDCDCD" fill-rule="evenodd"/><path d="M1627 981.478 1656.48 952 1658 952 1628.52 981.478Z" fill="#FFFFFF" fill-rule="evenodd"/><rect x="1658" y="892.478" width="1.52209" height="53.5222" fill="#00B0F0"/><path d="M1659.52 892.478 1689 863 1689 916.522 1659.52 946Z" fill="#008DC1" fill-rule="evenodd"/><path d="M1658 892.478 1687.48 863 1689 863 1659.52 892.478Z" fill="#32BFF3" fill-rule="evenodd"/><rect x="1689" y="862.478" width="1.52209" height="53.5224" fill="#FFFFFF"/><path d="M1690.52 862.478 1720 833 1720 886.522 1690.52 916Z" fill="#CDCDCD" fill-rule="evenodd"/><path d="M1689 862.478 1718.48 833 1720 833 1690.52 862.478Z" fill="#FFFFFF" fill-rule="evenodd"/><rect x="1658" y="948.478" width="1.52209" height="53.5224" fill="#FFFFFF"/><path d="M1659.52 948.478 1689 919 1689 972.522 1659.52 1002Z" fill="#CDCDCD" fill-rule="evenodd"/><path d="M1658 948.478 1687.48 919 1689 919 1659.52 948.478Z" fill="#FFFFFF" fill-rule="evenodd"/><rect x="1689" y="918.478" width="1.52209" height="53.5224" fill="#FFFFFF"/><path d="M1690.52 918.478 1720 889 1720 942.522 1690.52 972Z" fill="#CDCDCD" fill-rule="evenodd"/><path d="M1689 918.478 1718.48 889 1720 889 1690.52 918.478Z" fill="#FFFFFF" fill-rule="evenodd"/><rect x="1658" y="723.478" width="1.52209" height="53.5222" fill="#00B0F0"/><path d="M1659.52 723.478 1689 694 1689 747.522 1659.52 777Z" fill="#008DC1" fill-rule="evenodd"/><path d="M1658 723.478 1687.48 694 1689 694 1659.52 723.478Z" fill="#32BFF3" fill-rule="evenodd"/><rect x="1720" y="719.478" width="1.52209" height="53.5224" fill="#FFFFFF"/><path d="M1721.52 719.478 1751 690 1751 743.522 1721.52 773Z" fill="#CDCDCD" fill-rule="evenodd"/><path d="M1720 719.478 1749.48 690 1751 690 1721.52 719.478Z" fill="#FFFFFF" fill-rule="evenodd"/><rect x="1751" y="632.527" width="1.47302" height="55.4728" fill="#00B0F0"/><path d="M1752.47 632.527 1781 604 1781 659.473 1752.47 688Z" fill="#008DC1" fill-rule="evenodd"/><path d="M1751 632.527 1779.53 604 1781 604 1752.47 632.527Z" fill="#32BFF3" fill-rule="evenodd"/><rect x="1751" y="688.527" width="1.47302" height="54.4731" fill="#FFFFFF"/><path d="M1752.47 688.527 1781 660 1781 714.473 1752.47 743Z" fill="#CDCDCD" fill-rule="evenodd"/><path d="M1751 688.527 1779.53 660 1781 660 1752.47 688.527Z" fill="#FFFFFF" fill-rule="evenodd"/><rect x="1720" y="774.478" width="1.52209" height="54.5225" fill="#FFFFFF"/><path d="M1721.52 774.478 1751 745 1751 799.522 1721.52 829Z" fill="#CDCDCD" fill-rule="evenodd"/><path d="M1720 774.478 1749.48 745 1751 745 1721.52 774.478Z" fill="#FFFFFF" fill-rule="evenodd"/><rect x="1751" y="744.527" width="1.47302" height="54.4731" fill="#FFFFFF"/><path d="M1752.47 744.527 1781 716 1781 770.473 1752.47 799Z" fill="#CDCDCD" fill-rule="evenodd"/><path d="M1751 744.527 1779.53 716 1781 716 1752.47 744.527Z" fill="#FFFFFF" fill-rule="evenodd"/><rect x="1720" y="832.478" width="1.52209" height="53.5222" fill="#FFFFFF"/><path d="M1721.52 832.478 1751 803 1751 856.522 1721.52 886Z" fill="#CDCDCD" fill-rule="evenodd"/><path d="M1720 832.478 1749.48 803 1751 803 1721.52 832.478Z" fill="#FFFFFF" fill-rule="evenodd"/><rect x="1751" y="801.527" width="1.47302" height="54.4731" fill="#00B0F0"/><path d="M1752.47 801.527 1781 773 1781 827.473 1752.47 856Z" fill="#008DC1" fill-rule="evenodd"/><path d="M1751 801.527 1779.53 773 1781 773 1752.47 801.527Z" fill="#32BFF3" fill-rule="evenodd"/><rect x="1720" y="887.478" width="1.52209" height="53.5222" fill="#FFFFFF"/><path d="M1721.52 887.478 1751 858 1751 911.522 1721.52 941Z" fill="#CDCDCD" fill-rule="evenodd"/><path d="M1720 887.478 1749.48 858 1751 858 1721.52 887.478Z" fill="#FFFFFF" fill-rule="evenodd"/><rect x="1751" y="856.527" width="1.47302" height="54.4731" fill="#FFFFFF"/><path d="M1752.47 856.527 1781 828 1781 882.473 1752.47 911Z" fill="#CDCDCD" fill-rule="evenodd"/><path d="M1751 856.527 1779.53 828 1781 828 1752.47 856.527Z" fill="#FFFFFF" fill-rule="evenodd"/><rect x="1720" y="662.478" width="1.52209" height="54.5225" fill="#FFFFFF"/><path d="M1721.52 662.478 1751 633 1751 687.522 1721.52 717Z" fill="#CDCDCD" fill-rule="evenodd"/><path d="M1720 662.478 1749.48 633 1751 633 1721.52 662.478Z" fill="#FFFFFF" fill-rule="evenodd"/><rect x="1563" y="1098.48" width="1.52209" height="53.5222" fill="#FFFFFF"/><path d="M1564.52 1098.48 1594 1069 1594 1122.52 1564.52 1152Z" fill="#CDCDCD" fill-rule="evenodd"/><path d="M1563 1098.48 1592.48 1069 1594 1069 1564.52 1098.48Z" fill="#FFFFFF" fill-rule="evenodd"/><rect x="1594" y="1067.48" width="1.52209" height="54.5222" fill="#FFFFFF"/><path d="M1595.52 1067.48 1625 1038 1625 1092.52 1595.52 1122Z" fill="#CDCDCD" fill-rule="evenodd"/><path d="M1594 1067.48 1623.48 1038 1625 1038 1595.52 1067.48Z" fill="#FFFFFF" fill-rule="evenodd"/><rect x="1625" y="1037.48" width="1.52209" height="54.5225" fill="#FFFFFF"/><path d="M1626.52 1037.48 1656 1008 1656 1062.52 1626.52 1092Z" fill="#CDCDCD" fill-rule="evenodd"/><path d="M1625 1037.48 1654.48 1008 1656 1008 1626.52 1037.48Z" fill="#FFFFFF" fill-rule="evenodd"/><rect x="1563" y="1154.48" width="1.52209" height="53.5222" fill="#00B0F0"/><path d="M1564.52 1154.48 1594 1125 1594 1178.52 1564.52 1208Z" fill="#008DC1" fill-rule="evenodd"/><path d="M1563 1154.48 1592.48 1125 1594 1125 1564.52 1154.48Z" fill="#32BFF3" fill-rule="evenodd"/><rect x="1594" y="1123.48" width="1.52209" height="53.5222" fill="#FFFFFF"/><path d="M1595.52 1123.48 1625 1094 1625 1147.52 1595.52 1177Z" fill="#CDCDCD" fill-rule="evenodd"/><path d="M1594 1123.48 1623.48 1094 1625 1094 1595.52 1123.48Z" fill="#FFFFFF" fill-rule="evenodd"/><rect x="1625" y="1093.48" width="1.52209" height="53.5225" fill="#FFFFFF"/><path d="M1626.52 1093.48 1656 1064 1656 1117.52 1626.52 1147Z" fill="#CDCDCD" fill-rule="evenodd"/><path d="M1625 1093.48 1654.48 1064 1656 1064 1626.52 1093.48Z" fill="#FFFFFF" fill-rule="evenodd"/><rect x="1656" y="1004.48" width="1.52209" height="53.5225" fill="#FFFFFF"/><path d="M1657.52 1004.48 1687 975 1687 1028.52 1657.52 1058Z" fill="#CDCDCD" fill-rule="evenodd"/><path d="M1656 1004.48 1685.48 975 1687 975 1657.52 1004.48Z" fill="#FFFFFF" fill-rule="evenodd"/><rect x="1687" y="973.527" width="1.47302" height="54.4733" fill="#FFFFFF"/><path d="M1688.47 973.527 1717 945 1717 999.473 1688.47 1028Z" fill="#CDCDCD" fill-rule="evenodd"/><path d="M1687 973.527 1715.53 945 1717 945 1688.47 973.527Z" fill="#FFFFFF" fill-rule="evenodd"/><rect x="1656" y="1060.48" width="1.52209" height="53.5225" fill="#00B0F0"/><path d="M1657.52 1060.48 1687 1031 1687 1084.52 1657.52 1114Z" fill="#008DC1" fill-rule="evenodd"/><path d="M1656 1060.48 1685.48 1031 1687 1031 1657.52 1060.48Z" fill="#32BFF3" fill-rule="evenodd"/><rect x="1687" y="1029.53" width="1.47302" height="54.4731" fill="#FFFFFF"/><path d="M1688.47 1029.53 1717 1001 1717 1055.47 1688.47 1084Z" fill="#CDCDCD" fill-rule="evenodd"/><path d="M1687 1029.53 1715.53 1001 1717 1001 1688.47 1029.53Z" fill="#FFFFFF" fill-rule="evenodd"/><rect x="1717" y="944.478" width="1.52209" height="53.5222" fill="#FFFFFF"/><path d="M1718.52 944.478 1748 915 1748 968.522 1718.52 998Z" fill="#CDCDCD" fill-rule="evenodd"/><path d="M1717 944.478 1746.48 915 1748 915 1718.52 944.478Z" fill="#FFFFFF" fill-rule="evenodd"/><rect x="1748" y="914.478" width="1.52209" height="53.5222" fill="#FFFFFF"/><path d="M1749.52 914.478 1779 885 1779 938.522 1749.52 968Z" fill="#CDCDCD" fill-rule="evenodd"/><path d="M1748 914.478 1777.48 885 1779 885 1749.52 914.478Z" fill="#FFFFFF" fill-rule="evenodd"/><rect x="1717" y="999.478" width="1.52209" height="53.5222" fill="#FFFFFF"/><path d="M1718.52 999.478 1748 970 1748 1023.52 1718.52 1053Z" fill="#CDCDCD" fill-rule="evenodd"/><path d="M1717 999.478 1746.48 970 1748 970 1718.52 999.478Z" fill="#FFFFFF" fill-rule="evenodd"/><rect x="1748" y="969.478" width="1.52209" height="53.5222" fill="#00B0F0"/><path d="M1749.52 969.478 1779 940 1779 993.522 1749.52 1023Z" fill="#008DC1" fill-rule="evenodd"/><path d="M1748 969.478 1777.48 940 1779 940 1749.52 969.478Z" fill="#32BFF3" fill-rule="evenodd"/><path d="M1781.5 604.5 2237.94 815.321" stroke="#4874CB" stroke-width="4.58333" stroke-miterlimit="8" fill="none" fill-rule="evenodd"/><path d="M1567.5 819.5 2221.72 836.722" stroke="#4874CB" stroke-width="4.58333" stroke-miterlimit="8" fill="none" fill-rule="evenodd"/><path d="M0 0 662.377 328.45" stroke="#4874CB" stroke-width="4.58333" stroke-miterlimit="8" fill="none" fill-rule="evenodd" transform="matrix(1 0 0 -1 1564.5 1207.95)"/><path d="M0 0 463.93 133.013" stroke="#4874CB" stroke-width="4.58333" stroke-miterlimit="8" fill="none" fill-rule="evenodd" transform="matrix(1 0 0 -1 1787.5 988.513)"/><rect x="2136.5" y="787.783" width="38.7168" height="731.717" fill="#DFE3F1"/><path d="M2175.22 787.783 2566.5 396.5 2566.5 1128.22 2175.22 1519.5Z" fill="#B3B6C2" fill-rule="evenodd"/><path d="M2136.5 787.783 2527.78 396.5 2566.5 396.5 2175.22 787.783Z" fill="#E5E8F4" fill-rule="evenodd"/><path d="M2136.5 787.783 2527.78 396.5 2566.5 396.5 2566.5 1128.22 2175.22 1519.5 2136.5 1519.5ZM2136.5 787.783 2175.22 787.783 2566.5 396.5M2175.22 787.783 2175.22 1519.5" stroke="#000000" stroke-width="4.58333" stroke-miterlimit="8" fill="none" fill-rule="evenodd"/><rect x="2252" y="806.773" width="1.22754" height="45.2275" fill="#FFFFFF"/><path d="M2253.23 806.773 2277 783 2277 828.228 2253.23 852Z" fill="#CDCDCD" fill-rule="evenodd"/><path d="M2252 806.773 2275.77 783 2277 783 2253.23 806.773Z" fill="#FFFFFF" fill-rule="evenodd"/><rect x="2226" y="833.723" width="1.27661" height="44.2767" fill="#00B0F0"/><path d="M2227.28 833.723 2252 809 2252 853.276 2227.28 878Z" fill="#008DC1" fill-rule="evenodd"/><path d="M2226 833.723 2250.72 809 2252 809 2227.28 833.723Z" fill="#32BFF3" fill-rule="evenodd"/><rect x="2226" y="879.723" width="1.27661" height="44.2767" fill="#FFFFFF"/><path d="M2227.28 879.723 2252 855 2252 899.277 2227.28 924Z" fill="#CDCDCD" fill-rule="evenodd"/><path d="M2226 879.723 2250.72 855 2252 855 2227.28 879.723Z" fill="#FFFFFF" fill-rule="evenodd"/><rect x="2252" y="852.773" width="1.22754" height="46.2272" fill="#FFFFFF"/><path d="M2253.23 852.773 2277 829 2277 875.227 2253.23 899Z" fill="#CDCDCD" fill-rule="evenodd"/><path d="M2252 852.773 2275.77 829 2277 829 2253.23 852.773Z" fill="#FFFFFF" fill-rule="evenodd"/><rect x="2277" y="783.674" width="1.32568" height="43.326" fill="#00B0F0"/><path d="M2278.33 783.674 2304 758 2304 801.326 2278.33 827Z" fill="#008DC1" fill-rule="evenodd"/><path d="M2277 783.674 2302.67 758 2304 758 2278.33 783.674Z" fill="#32BFF3" fill-rule="evenodd"/><rect x="2277" y="828.723" width="1.27661" height="45.277" fill="#FFFFFF"/><path d="M2278.28 828.723 2303 804 2303 849.277 2278.28 874Z" fill="#CDCDCD" fill-rule="evenodd"/><path d="M2277 828.723 2301.72 804 2303 804 2278.28 828.723Z" fill="#FFFFFF" fill-rule="evenodd"/><rect x="2226" y="925.723" width="1.27661" height="45.277" fill="#00B0F0"/><path d="M2227.28 925.723 2252 901 2252 946.277 2227.28 971Z" fill="#008DC1" fill-rule="evenodd"/><path d="M2226 925.723 2250.72 901 2252 901 2227.28 925.723Z" fill="#32BFF3" fill-rule="evenodd"/><rect x="2252" y="899.772" width="1.22754" height="45.2275" fill="#FFFFFF"/><path d="M2253.23 899.772 2277 876 2277 921.227 2253.23 945Z" fill="#CDCDCD" fill-rule="evenodd"/><path d="M2252 899.772 2275.77 876 2277 876 2253.23 899.772Z" fill="#FFFFFF" fill-rule="evenodd"/><rect x="2277" y="875.723" width="1.27661" height="44.2764" fill="#00B0F0"/><path d="M2278.28 875.723 2303 851 2303 895.277 2278.28 920Z" fill="#008DC1" fill-rule="evenodd"/><path d="M2277 875.723 2301.72 851 2303 851 2278.28 875.723Z" fill="#32BFF3" fill-rule="evenodd"/><rect x="2303" y="754.723" width="1.27661" height="45.2767" fill="#00B0F0"/><path d="M2304.28 754.723 2329 730 2329 775.277 2304.28 800Z" fill="#008DC1" fill-rule="evenodd"/><path d="M2303 754.723 2327.72 730 2329 730 2304.28 754.723Z" fill="#32BFF3" fill-rule="evenodd"/><rect x="2303" y="801.723" width="1.27661" height="44.2767" fill="#FFFFFF"/><path d="M2304.28 801.723 2329 777 2329 821.277 2304.28 846Z" fill="#CDCDCD" fill-rule="evenodd"/><path d="M2303 801.723 2327.72 777 2329 777 2304.28 801.723Z" fill="#FFFFFF" fill-rule="evenodd"/><rect x="2329" y="728.773" width="1.22754" height="46.2275" fill="#00B0F0"/><path d="M2330.23 728.773 2354 705 2354 751.228 2330.23 775Z" fill="#008DC1" fill-rule="evenodd"/><path d="M2329 728.773 2352.77 705 2354 705 2330.23 728.773Z" fill="#32BFF3" fill-rule="evenodd"/><rect x="2329" y="775.773" width="1.22754" height="45.2273" fill="#FFFFFF"/><path d="M2330.23 775.773 2354 752 2354 797.227 2330.23 821Z" fill="#CDCDCD" fill-rule="evenodd"/><path d="M2329 775.773 2352.77 752 2354 752 2330.23 775.773Z" fill="#FFFFFF" fill-rule="evenodd"/><rect x="2303" y="847.723" width="1.27661" height="44.2767" fill="#FFFFFF"/><path d="M2304.28 847.723 2329 823 2329 867.277 2304.28 892Z" fill="#CDCDCD" fill-rule="evenodd"/><path d="M2303 847.723 2327.72 823 2329 823 2304.28 847.723Z" fill="#FFFFFF" fill-rule="evenodd"/><rect x="2329" y="821.772" width="1.22754" height="45.2275" fill="#00B0F0"/><path d="M2330.23 821.772 2354 798 2354 843.227 2330.23 867Z" fill="#008DC1" fill-rule="evenodd"/><path d="M2329 821.772 2352.77 798 2354 798 2330.23 821.772Z" fill="#32BFF3" fill-rule="evenodd"/><rect x="2226" y="973.723" width="1.27661" height="44.2764" fill="#FFFFFF"/><path d="M2227.28 973.723 2252 949 2252 993.277 2227.28 1018Z" fill="#CDCDCD" fill-rule="evenodd"/><path d="M2226 973.723 2250.72 949 2252 949 2227.28 973.723Z" fill="#FFFFFF" fill-rule="evenodd"/><rect x="2252" y="946.773" width="1.22754" height="46.2275" fill="#FFFFFF"/><path d="M2253.23 946.773 2277 923 2277 969.227 2253.23 993Z" fill="#CDCDCD" fill-rule="evenodd"/><path d="M2252 946.773 2275.77 923 2277 923 2253.23 946.773Z" fill="#FFFFFF" fill-rule="evenodd"/><rect x="2277" y="922.723" width="1.27661" height="45.277" fill="#FFFFFF"/><path d="M2278.28 922.723 2303 898 2303 943.277 2278.28 968Z" fill="#CDCDCD" fill-rule="evenodd"/><path d="M2277 922.723 2301.72 898 2303 898 2278.28 922.723Z" fill="#FFFFFF" fill-rule="evenodd"/><rect x="2226" y="1019.72" width="1.27661" height="44.2764" fill="#00B0F0"/><path d="M2227.28 1019.72 2252 995 2252 1039.28 2227.28 1064Z" fill="#008DC1" fill-rule="evenodd"/><path d="M2226 1019.72 2250.72 995 2252 995 2227.28 1019.72Z" fill="#32BFF3" fill-rule="evenodd"/><rect x="2252" y="992.773" width="1.22754" height="46.2275" fill="#FFFFFF"/><path d="M2253.23 992.773 2277 969 2277 1015.23 2253.23 1039Z" fill="#CDCDCD" fill-rule="evenodd"/><path d="M2252 992.773 2275.77 969 2277 969 2253.23 992.773Z" fill="#FFFFFF" fill-rule="evenodd"/><rect x="2277" y="969.723" width="1.27661" height="44.2767" fill="#00B0F0"/><path d="M2278.28 969.723 2303 945 2303 989.277 2278.28 1014Z" fill="#008DC1" fill-rule="evenodd"/><path d="M2277 969.723 2301.72 945 2303 945 2278.28 969.723Z" fill="#32BFF3" fill-rule="evenodd"/><rect x="2303" y="895.724" width="1.27661" height="44.2767" fill="#FFFFFF"/><path d="M2304.28 895.724 2329 871 2329 915.277 2304.28 940Z" fill="#CDCDCD" fill-rule="evenodd"/><path d="M2303 895.724 2327.72 871 2329 871 2304.28 895.724Z" fill="#FFFFFF" fill-rule="evenodd"/><rect x="2329" y="869.773" width="1.22754" height="45.2275" fill="#FFFFFF"/><path d="M2330.23 869.773 2354 846 2354 891.227 2330.23 915Z" fill="#CDCDCD" fill-rule="evenodd"/><path d="M2329 869.773 2352.77 846 2354 846 2330.23 869.773Z" fill="#FFFFFF" fill-rule="evenodd"/><rect x="2303" y="941.723" width="1.27661" height="44.2764" fill="#FFFFFF"/><path d="M2304.28 941.723 2329 917 2329 961.277 2304.28 986Z" fill="#CDCDCD" fill-rule="evenodd"/><path d="M2303 941.723 2327.72 917 2329 917 2304.28 941.723Z" fill="#FFFFFF" fill-rule="evenodd"/><rect x="2329" y="915.773" width="1.22754" height="45.2275" fill="#00B0F0"/><path d="M2330.23 915.773 2354 892 2354 937.228 2330.23 961Z" fill="#008DC1" fill-rule="evenodd"/><path d="M2329 915.773 2352.77 892 2354 892 2330.23 915.773Z" fill="#32BFF3" fill-rule="evenodd"/><rect x="2303" y="753.723" width="1.27661" height="45.2767" fill="#FFFFFF"/><path d="M2304.28 753.723 2329 729 2329 774.277 2304.28 799Z" fill="#CDCDCD" fill-rule="evenodd"/><path d="M2303 753.723 2327.72 729 2329 729 2304.28 753.723Z" fill="#FFFFFF" fill-rule="evenodd"/><path d="M2354.5 705.5 2879.22 807.81" stroke="#4874CB" stroke-width="4.58333" stroke-miterlimit="8" fill="none" fill-rule="evenodd"/><path d="M0 0 627.717 0.201739" stroke="#4874CB" stroke-width="4.58333" stroke-miterlimit="8" fill="none" fill-rule="evenodd" transform="matrix(1 0 0 -1 2227.5 833.702)"/><path d="M0 0 524.723 90.6143" stroke="#4874CB" stroke-width="4.58333" stroke-miterlimit="8" fill="none" fill-rule="evenodd" transform="matrix(1 0 0 -1 2354.5 939.114)"/><path d="M0 0 621.617 203.956" stroke="#4874CB" stroke-width="4.58333" stroke-miterlimit="8" fill="none" fill-rule="evenodd" transform="matrix(1 0 0 -1 2227.5 1064.46)"/><rect x="2770.5" y="771.873" width="38.6272" height="732.627" fill="#DFE3F1"/><path d="M2809.13 771.873 3199.5 381.5 3199.5 1114.13 2809.13 1504.5Z" fill="#B3B6C2" fill-rule="evenodd"/><path d="M2770.5 771.873 3160.87 381.5 3199.5 381.5 2809.13 771.873Z" fill="#E5E8F4" fill-rule="evenodd"/><path d="M2770.5 771.873 3160.87 381.5 3199.5 381.5 3199.5 1114.13 2809.13 1504.5 2770.5 1504.5ZM2770.5 771.873 2809.13 771.873 3199.5 381.5M2809.13 771.873 2809.13 1504.5" stroke="#000000" stroke-width="4.58333" stroke-miterlimit="8" fill="none" fill-rule="evenodd"/><rect x="2879" y="805.92" width="1.08008" height="39.0801" fill="#00B0F0"/><path d="M2880.08 805.92 2901 785 2901 824.08 2880.08 845Z" fill="#008DC1" fill-rule="evenodd"/><path d="M2879 805.92 2899.92 785 2901 785 2880.08 805.92Z" fill="#32BFF3" fill-rule="evenodd"/><rect x="2857" y="828.92" width="1.08008" height="39.0801" fill="#00B0F0"/><path d="M2858.08 828.92 2879 808 2879 847.08 2858.08 868Z" fill="#008DC1" fill-rule="evenodd"/><path d="M2857 828.92 2877.92 808 2879 808 2858.08 828.92Z" fill="#32BFF3" fill-rule="evenodd"/><rect x="2857" y="868.92" width="1.08008" height="39.0801" fill="#00B0F0"/><path d="M2858.08 868.92 2879 848 2879 887.08 2858.08 908Z" fill="#008DC1" fill-rule="evenodd"/><path d="M2857 868.92 2877.92 848 2879 848 2858.08 868.92Z" fill="#32BFF3" fill-rule="evenodd"/><rect x="2879" y="845.92" width="1.08008" height="40.0801" fill="#00B0F0"/><path d="M2880.08 845.92 2901 825 2901 865.08 2880.08 886Z" fill="#008DC1" fill-rule="evenodd"/><path d="M2879 845.92 2899.92 825 2901 825 2880.08 845.92Z" fill="#32BFF3" fill-rule="evenodd"/><rect x="2901" y="784.871" width="1.12915" height="39.1291" fill="#00B0F0"/><path d="M2902.13 784.871 2924 763 2924 802.129 2902.13 824Z" fill="#008DC1" fill-rule="evenodd"/><path d="M2901 784.871 2922.87 763 2924 763 2902.13 784.871Z" fill="#32BFF3" fill-rule="evenodd"/><rect x="2901" y="825.871" width="1.12939" height="38.1292" fill="#00B0F0"/><path d="M2902.13 825.871 2924 804 2924 842.129 2902.13 864Z" fill="#008DC1" fill-rule="evenodd"/><path d="M2901 825.871 2922.87 804 2924 804 2902.13 825.871Z" fill="#32BFF3" fill-rule="evenodd"/><rect x="2857" y="908.92" width="1.08008" height="39.0804" fill="#00B0F0"/><path d="M2858.08 908.92 2879 888 2879 927.08 2858.08 948Z" fill="#008DC1" fill-rule="evenodd"/><path d="M2857 908.92 2877.92 888 2879 888 2858.08 908.92Z" fill="#32BFF3" fill-rule="evenodd"/><rect x="2879" y="886.92" width="1.08008" height="39.0804" fill="#00B0F0"/><path d="M2880.08 886.92 2901 866 2901 905.08 2880.08 926Z" fill="#008DC1" fill-rule="evenodd"/><path d="M2879 886.92 2899.92 866 2901 866 2880.08 886.92Z" fill="#32BFF3" fill-rule="evenodd"/><rect x="2901" y="865.871" width="1.12939" height="38.1294" fill="#00B0F0"/><path d="M2902.13 865.871 2924 844 2924 882.129 2902.13 904Z" fill="#008DC1" fill-rule="evenodd"/><path d="M2901 865.871 2922.87 844 2924 844 2902.13 865.871Z" fill="#32BFF3" fill-rule="evenodd"/><path d="M0 0 633.025 23.9622" stroke="#4874CB" stroke-width="4.58333" stroke-miterlimit="8" fill="none" fill-rule="evenodd" transform="matrix(1 0 0 -1 2923.5 764.462)"/><path d="M0 0 667.818 59.6866" stroke="#4874CB" stroke-width="4.58333" stroke-miterlimit="8" fill="none" fill-rule="evenodd" transform="matrix(1 0 0 -1 2854.5 836.187)"/><path d="M0 0 633.025 79.7276" stroke="#4874CB" stroke-width="4.58333" stroke-miterlimit="8" fill="none" fill-rule="evenodd" transform="matrix(1 0 0 -1 2923.5 875.228)"/><path d="M0 0 668.235 130.885" stroke="#4874CB" stroke-width="4.58333" stroke-miterlimit="8" fill="none" fill-rule="evenodd" transform="matrix(1 0 0 -1 2858.5 929.385)"/><rect x="3444.5" y="752.783" width="38.7168" height="731.717" fill="#DFE3F1"/><path d="M3483.22 752.783 3874.5 361.5 3874.5 1093.22 3483.22 1484.5Z" fill="#B3B6C2" fill-rule="evenodd"/><path d="M3444.5 752.783 3835.78 361.5 3874.5 361.5 3483.22 752.783Z" fill="#E5E8F4" fill-rule="evenodd"/><path d="M3444.5 752.783 3835.78 361.5 3874.5 361.5 3874.5 1093.22 3483.22 1484.5 3444.5 1484.5ZM3444.5 752.783 3483.22 752.783 3874.5 361.5M3483.22 752.783 3483.22 1484.5" stroke="#000000" stroke-width="4.58333" stroke-miterlimit="8" fill="none" fill-rule="evenodd"/><rect x="3555" y="739.478" width="1.52222" height="53.5224" fill="#FFFFFF"/><path d="M3556.52 739.478 3586 710 3586 763.522 3556.52 793Z" fill="#CDCDCD" fill-rule="evenodd"/><path d="M3555 739.478 3584.48 710 3586 710 3556.52 739.478Z" fill="#FFFFFF" fill-rule="evenodd"/><rect x="3524" y="770.478" width="1.52197" height="54.5222" fill="#00B0F0"/><path d="M3525.52 770.478 3555 741 3555 795.522 3525.52 825Z" fill="#008DC1" fill-rule="evenodd"/><path d="M3524 770.478 3553.48 741 3555 741 3525.52 770.478Z" fill="#32BFF3" fill-rule="evenodd"/><rect x="3524" y="825.478" width="1.52197" height="54.5222" fill="#FFFFFF"/><path d="M3525.52 825.478 3555 796 3555 850.522 3525.52 880Z" fill="#CDCDCD" fill-rule="evenodd"/><path d="M3524 825.478 3553.48 796 3555 796 3525.52 825.478Z" fill="#FFFFFF" fill-rule="evenodd"/><rect x="3555" y="795.478" width="1.52222" height="53.5224" fill="#FFFFFF"/><path d="M3556.52 795.478 3586 766 3586 819.522 3556.52 849Z" fill="#CDCDCD" fill-rule="evenodd"/><path d="M3555 795.478 3584.48 766 3586 766 3556.52 795.478Z" fill="#FFFFFF" fill-rule="evenodd"/><rect x="3586" y="710.429" width="1.57129" height="52.5715" fill="#FFFFFF"/><path d="M3587.57 710.429 3618 680 3618 732.571 3587.57 763Z" fill="#CDCDCD" fill-rule="evenodd"/><path d="M3586 710.429 3616.43 680 3618 680 3587.57 710.429Z" fill="#FFFFFF" fill-rule="evenodd"/><rect x="3586" y="765.478" width="1.52222" height="53.5224" fill="#FFFFFF"/><path d="M3587.52 765.478 3617 736 3617 789.522 3587.52 819Z" fill="#CDCDCD" fill-rule="evenodd"/><path d="M3586 765.478 3615.48 736 3617 736 3587.52 765.478Z" fill="#FFFFFF" fill-rule="evenodd"/><rect x="3524" y="881.478" width="1.52222" height="53.5222" fill="#FFFFFF"/><path d="M3525.52 881.478 3555 852 3555 905.522 3525.52 935Z" fill="#CDCDCD" fill-rule="evenodd"/><path d="M3524 881.478 3553.48 852 3555 852 3525.52 881.478Z" fill="#FFFFFF" fill-rule="evenodd"/><rect x="3555" y="850.478" width="1.52222" height="53.5224" fill="#FFFFFF"/><path d="M3556.52 850.478 3586 821 3586 874.522 3556.52 904Z" fill="#CDCDCD" fill-rule="evenodd"/><path d="M3555 850.478 3584.48 821 3586 821 3556.52 850.478Z" fill="#FFFFFF" fill-rule="evenodd"/><rect x="3586" y="820.478" width="1.52197" height="54.5222" fill="#FFFFFF"/><path d="M3587.52 820.478 3617 791 3617 845.522 3587.52 875Z" fill="#CDCDCD" fill-rule="evenodd"/><path d="M3586 820.478 3615.48 791 3617 791 3587.52 820.478Z" fill="#FFFFFF" fill-rule="evenodd"/><rect x="3617" y="676.478" width="1.52222" height="53.5224" fill="#00B0F0"/><path d="M3618.52 676.478 3648 647 3648 700.522 3618.52 730Z" fill="#008DC1" fill-rule="evenodd"/><path d="M3617 676.478 3646.48 647 3648 647 3618.52 676.478Z" fill="#32BFF3" fill-rule="evenodd"/><rect x="3617" y="732.478" width="1.52222" height="53.5224" fill="#FFFFFF"/><path d="M3618.52 732.478 3648 703 3648 756.522 3618.52 786Z" fill="#CDCDCD" fill-rule="evenodd"/><path d="M3617 732.478 3646.48 703 3648 703 3618.52 732.478Z" fill="#FFFFFF" fill-rule="evenodd"/><rect x="3648" y="645.527" width="1.4729" height="54.4731" fill="#FFFFFF"/><path d="M3649.47 645.527 3678 617 3678 671.473 3649.47 700Z" fill="#CDCDCD" fill-rule="evenodd"/><path d="M3648 645.527 3676.53 617 3678 617 3649.47 645.527Z" fill="#FFFFFF" fill-rule="evenodd"/><rect x="3648" y="701.527" width="1.4729" height="54.4731" fill="#FFFFFF"/><path d="M3649.47 701.527 3678 673 3678 727.473 3649.47 756Z" fill="#CDCDCD" fill-rule="evenodd"/><path d="M3648 701.527 3676.53 673 3678 673 3649.47 701.527Z" fill="#FFFFFF" fill-rule="evenodd"/><rect x="3617" y="787.478" width="1.52222" height="53.5224" fill="#FFFFFF"/><path d="M3618.52 787.478 3648 758 3648 811.522 3618.52 841Z" fill="#CDCDCD" fill-rule="evenodd"/><path d="M3617 787.478 3646.48 758 3648 758 3618.52 787.478Z" fill="#FFFFFF" fill-rule="evenodd"/><rect x="3648" y="756.527" width="1.4729" height="54.4731" fill="#FFFFFF"/><path d="M3649.47 756.527 3678 728 3678 782.473 3649.47 811Z" fill="#CDCDCD" fill-rule="evenodd"/><path d="M3648 756.527 3676.53 728 3678 728 3649.47 756.527Z" fill="#FFFFFF" fill-rule="evenodd"/><rect x="3524" y="938.478" width="1.52222" height="53.5224" fill="#00B0F0"/><path d="M3525.52 938.478 3555 909 3555 962.522 3525.52 992Z" fill="#008DC1" fill-rule="evenodd"/><path d="M3524 938.478 3553.48 909 3555 909 3525.52 938.478Z" fill="#32BFF3" fill-rule="evenodd"/><rect x="3555" y="907.478" width="1.52197" height="54.5225" fill="#FFFFFF"/><path d="M3556.52 907.478 3586 878 3586 932.522 3556.52 962Z" fill="#CDCDCD" fill-rule="evenodd"/><path d="M3555 907.478 3584.48 878 3586 878 3556.52 907.478Z" fill="#FFFFFF" fill-rule="evenodd"/><rect x="3586" y="877.478" width="1.52197" height="54.5222" fill="#FFFFFF"/><path d="M3587.52 877.478 3617 848 3617 902.522 3587.52 932Z" fill="#CDCDCD" fill-rule="evenodd"/><path d="M3586 877.478 3615.48 848 3617 848 3587.52 877.478Z" fill="#FFFFFF" fill-rule="evenodd"/><rect x="3524" y="993.478" width="1.52197" height="54.5225" fill="#FFFFFF"/><path d="M3525.52 993.478 3555 964 3555 1018.52 3525.52 1048Z" fill="#CDCDCD" fill-rule="evenodd"/><path d="M3524 993.478 3553.48 964 3555 964 3525.52 993.478Z" fill="#FFFFFF" fill-rule="evenodd"/><rect x="3555" y="963.478" width="1.52222" height="53.5224" fill="#FFFFFF"/><path d="M3556.52 963.478 3586 934 3586 987.522 3556.52 1017Z" fill="#CDCDCD" fill-rule="evenodd"/><path d="M3555 963.478 3584.48 934 3586 934 3556.52 963.478Z" fill="#FFFFFF" fill-rule="evenodd"/><rect x="3586" y="933.478" width="1.52222" height="53.5222" fill="#FFFFFF"/><path d="M3587.52 933.478 3617 904 3617 957.522 3587.52 987Z" fill="#CDCDCD" fill-rule="evenodd"/><path d="M3586 933.478 3615.48 904 3617 904 3587.52 933.478Z" fill="#FFFFFF" fill-rule="evenodd"/><rect x="3617" y="844.478" width="1.52222" height="53.5222" fill="#00B0F0"/><path d="M3618.52 844.478 3648 815 3648 868.522 3618.52 898Z" fill="#008DC1" fill-rule="evenodd"/><path d="M3617 844.478 3646.48 815 3648 815 3618.52 844.478Z" fill="#32BFF3" fill-rule="evenodd"/><rect x="3648" y="813.527" width="1.4729" height="54.4731" fill="#FFFFFF"/><path d="M3649.47 813.527 3678 785 3678 839.473 3649.47 868Z" fill="#CDCDCD" fill-rule="evenodd"/><path d="M3648 813.527 3676.53 785 3678 785 3649.47 813.527Z" fill="#FFFFFF" fill-rule="evenodd"/><rect x="3617" y="900.478" width="1.52222" height="53.5222" fill="#FFFFFF"/><path d="M3618.52 900.478 3648 871 3648 924.522 3618.52 954Z" fill="#CDCDCD" fill-rule="evenodd"/><path d="M3617 900.478 3646.48 871 3648 871 3618.52 900.478Z" fill="#FFFFFF" fill-rule="evenodd"/><rect x="3648" y="869.527" width="1.4729" height="54.4731" fill="#FFFFFF"/><path d="M3649.47 869.527 3678 841 3678 895.473 3649.47 924Z" fill="#CDCDCD" fill-rule="evenodd"/><path d="M3648 869.527 3676.53 841 3678 841 3649.47 869.527Z" fill="#FFFFFF" fill-rule="evenodd"/><rect x="3617" y="675.478" width="1.52222" height="53.5224" fill="#00B0F0"/><path d="M3618.52 675.478 3648 646 3648 699.522 3618.52 729Z" fill="#008DC1" fill-rule="evenodd"/><path d="M3617 675.478 3646.48 646 3648 646 3618.52 675.478Z" fill="#32BFF3" fill-rule="evenodd"/><rect x="3678" y="671.478" width="1.52222" height="53.5222" fill="#FFFFFF"/><path d="M3679.52 671.478 3709 642 3709 695.522 3679.52 725Z" fill="#CDCDCD" fill-rule="evenodd"/><path d="M3678 671.478 3707.48 642 3709 642 3679.52 671.478Z" fill="#FFFFFF" fill-rule="evenodd"/><rect x="3709" y="585.478" width="1.52197" height="54.5225" fill="#00B0F0"/><path d="M3710.52 585.478 3740 556 3740 610.522 3710.52 640Z" fill="#008DC1" fill-rule="evenodd"/><path d="M3709 585.478 3738.48 556 3740 556 3710.52 585.478Z" fill="#32BFF3" fill-rule="evenodd"/><rect x="3709" y="641.478" width="1.52222" height="53.5224" fill="#FFFFFF"/><path d="M3710.52 641.478 3740 612 3740 665.522 3710.52 695Z" fill="#CDCDCD" fill-rule="evenodd"/><path d="M3709 641.478 3738.48 612 3740 612 3710.52 641.478Z" fill="#FFFFFF" fill-rule="evenodd"/><rect x="3678" y="726.478" width="1.52197" height="54.5222" fill="#FFFFFF"/><path d="M3679.52 726.478 3709 697 3709 751.522 3679.52 781Z" fill="#CDCDCD" fill-rule="evenodd"/><path d="M3678 726.478 3707.48 697 3709 697 3679.52 726.478Z" fill="#FFFFFF" fill-rule="evenodd"/><rect x="3709" y="697.478" width="1.52222" height="53.5224" fill="#FFFFFF"/><path d="M3710.52 697.478 3740 668 3740 721.522 3710.52 751Z" fill="#CDCDCD" fill-rule="evenodd"/><path d="M3709 697.478 3738.48 668 3740 668 3710.52 697.478Z" fill="#FFFFFF" fill-rule="evenodd"/><rect x="3678" y="784.478" width="1.52222" height="53.5224" fill="#FFFFFF"/><path d="M3679.52 784.478 3709 755 3709 808.522 3679.52 838Z" fill="#CDCDCD" fill-rule="evenodd"/><path d="M3678 784.478 3707.48 755 3709 755 3679.52 784.478Z" fill="#FFFFFF" fill-rule="evenodd"/><rect x="3709" y="754.478" width="1.52222" height="53.5224" fill="#00B0F0"/><path d="M3710.52 754.478 3740 725 3740 778.522 3710.52 808Z" fill="#008DC1" fill-rule="evenodd"/><path d="M3709 754.478 3738.48 725 3740 725 3710.52 754.478Z" fill="#32BFF3" fill-rule="evenodd"/><rect x="3678" y="839.478" width="1.52222" height="53.5224" fill="#FFFFFF"/><path d="M3679.52 839.478 3709 810 3709 863.522 3679.52 893Z" fill="#CDCDCD" fill-rule="evenodd"/><path d="M3678 839.478 3707.48 810 3709 810 3679.52 839.478Z" fill="#FFFFFF" fill-rule="evenodd"/><rect x="3709" y="809.478" width="1.52222" height="53.5224" fill="#FFFFFF"/><path d="M3710.52 809.478 3740 780 3740 833.522 3710.52 863Z" fill="#CDCDCD" fill-rule="evenodd"/><path d="M3709 809.478 3738.48 780 3740 780 3710.52 809.478Z" fill="#FFFFFF" fill-rule="evenodd"/><rect x="3678" y="614.478" width="1.52197" height="54.5222" fill="#FFFFFF"/><path d="M3679.52 614.478 3709 585 3709 639.522 3679.52 669Z" fill="#CDCDCD" fill-rule="evenodd"/><path d="M3678 614.478 3707.48 585 3709 585 3679.52 614.478Z" fill="#FFFFFF" fill-rule="evenodd"/><rect x="3522" y="1050.48" width="1.52222" height="53.5225" fill="#FFFFFF"/><path d="M3523.52 1050.48 3553 1021 3553 1074.52 3523.52 1104Z" fill="#CDCDCD" fill-rule="evenodd"/><path d="M3522 1050.48 3551.48 1021 3553 1021 3523.52 1050.48Z" fill="#FFFFFF" fill-rule="evenodd"/><rect x="3553" y="1019.48" width="1.52197" height="54.5222" fill="#FFFFFF"/><path d="M3554.52 1019.48 3584 990 3584 1044.52 3554.52 1074Z" fill="#CDCDCD" fill-rule="evenodd"/><path d="M3553 1019.48 3582.48 990 3584 990 3554.52 1019.48Z" fill="#FFFFFF" fill-rule="evenodd"/><rect x="3584" y="988.527" width="1.47314" height="55.4728" fill="#FFFFFF"/><path d="M3585.47 988.527 3614 960 3614 1015.47 3585.47 1044Z" fill="#CDCDCD" fill-rule="evenodd"/><path d="M3584 988.527 3612.53 960 3614 960 3585.47 988.527Z" fill="#FFFFFF" fill-rule="evenodd"/><rect x="3522" y="1106.48" width="1.52222" height="53.5225" fill="#00B0F0"/><path d="M3523.52 1106.48 3553 1077 3553 1130.52 3523.52 1160Z" fill="#008DC1" fill-rule="evenodd"/><path d="M3522 1106.48 3551.48 1077 3553 1077 3523.52 1106.48Z" fill="#32BFF3" fill-rule="evenodd"/><rect x="3553" y="1075.48" width="1.52222" height="53.5222" fill="#FFFFFF"/><path d="M3554.52 1075.48 3584 1046 3584 1099.52 3554.52 1129Z" fill="#CDCDCD" fill-rule="evenodd"/><path d="M3553 1075.48 3582.48 1046 3584 1046 3554.52 1075.48Z" fill="#FFFFFF" fill-rule="evenodd"/><rect x="3584" y="1044.53" width="1.4729" height="54.4731" fill="#FFFFFF"/><path d="M3585.47 1044.53 3614 1016 3614 1070.47 3585.47 1099Z" fill="#CDCDCD" fill-rule="evenodd"/><path d="M3584 1044.53 3612.53 1016 3614 1016 3585.47 1044.53Z" fill="#FFFFFF" fill-rule="evenodd"/><rect x="3614" y="956.478" width="1.52222" height="53.5222" fill="#FFFFFF"/><path d="M3615.52 956.478 3645 927 3645 980.522 3615.52 1010Z" fill="#CDCDCD" fill-rule="evenodd"/><path d="M3614 956.478 3643.48 927 3645 927 3615.52 956.478Z" fill="#FFFFFF" fill-rule="evenodd"/><rect x="3645" y="926.478" width="1.52197" height="54.5225" fill="#FFFFFF"/><path d="M3646.52 926.478 3676 897 3676 951.522 3646.52 981Z" fill="#CDCDCD" fill-rule="evenodd"/><path d="M3645 926.478 3674.48 897 3676 897 3646.52 926.478Z" fill="#FFFFFF" fill-rule="evenodd"/><rect x="3614" y="1012.48" width="1.52222" height="53.5222" fill="#00B0F0"/><path d="M3615.52 1012.48 3645 983 3645 1036.52 3615.52 1066Z" fill="#008DC1" fill-rule="evenodd"/><path d="M3614 1012.48 3643.48 983 3645 983 3615.52 1012.48Z" fill="#32BFF3" fill-rule="evenodd"/><rect x="3645" y="982.478" width="1.52222" height="53.5225" fill="#FFFFFF"/><path d="M3646.52 982.478 3676 953 3676 1006.52 3646.52 1036Z" fill="#CDCDCD" fill-rule="evenodd"/><path d="M3645 982.478 3674.48 953 3676 953 3646.52 982.478Z" fill="#FFFFFF" fill-rule="evenodd"/><rect x="3676" y="896.478" width="1.52222" height="53.5224" fill="#FFFFFF"/><path d="M3677.52 896.478 3707 867 3707 920.522 3677.52 950Z" fill="#CDCDCD" fill-rule="evenodd"/><path d="M3676 896.478 3705.48 867 3707 867 3677.52 896.478Z" fill="#FFFFFF" fill-rule="evenodd"/><rect x="3707" y="866.478" width="1.52222" height="53.5222" fill="#FFFFFF"/><path d="M3708.52 866.478 3738 837 3738 890.522 3708.52 920Z" fill="#CDCDCD" fill-rule="evenodd"/><path d="M3707 866.478 3736.48 837 3738 837 3708.52 866.478Z" fill="#FFFFFF" fill-rule="evenodd"/><rect x="3676" y="951.478" width="1.52222" height="53.5224" fill="#FFFFFF"/><path d="M3677.52 951.478 3707 922 3707 975.522 3677.52 1005Z" fill="#CDCDCD" fill-rule="evenodd"/><path d="M3676 951.478 3705.48 922 3707 922 3677.52 951.478Z" fill="#FFFFFF" fill-rule="evenodd"/><rect x="3707" y="921.478" width="1.52222" height="53.5222" fill="#00B0F0"/><path d="M3708.52 921.478 3738 892 3738 945.522 3708.52 975Z" fill="#008DC1" fill-rule="evenodd"/><path d="M3707 921.478 3736.48 892 3738 892 3708.52 921.478Z" fill="#32BFF3" fill-rule="evenodd"/><path d="M1288.5 956.5 1431.5 956.5 1431.5 930.5 1483.5 982.5 1431.5 1034.5 1431.5 1008.5 1288.5 1008.5Z" stroke="#192D54" stroke-width="4.58333" stroke-miterlimit="8" fill="#F5C7B7" fill-rule="evenodd"/><path d="M635.5 942.5 778.5 942.5 778.5 916.5 830.5 968.5 778.5 1020.5 778.5 994.5 635.5 994.5Z" stroke="#192D54" stroke-width="4.58333" stroke-miterlimit="8" fill="#92D050" fill-rule="evenodd"/><path d="M1934.5 966.5 2077.5 966.5 2077.5 940.5 2129.5 992.5 2077.5 1044.5 2077.5 1018.5 1934.5 1018.5Z" stroke="#192D54" stroke-width="4.58333" stroke-miterlimit="8" fill="#7030A0" fill-rule="evenodd"/><path d="M2581.5 960.5 2724.5 960.5 2724.5 934.5 2776.5 986.5 2724.5 1038.5 2724.5 1012.5 2581.5 1012.5Z" stroke="#192D54" stroke-width="4.58333" stroke-miterlimit="8" fill="#F5C7B7" fill-rule="evenodd"/><path d="M3243.5 963.5 3386.5 963.5 3386.5 937.5 3438.5 989.5 3386.5 1041.5 3386.5 1015.5 3243.5 1015.5Z" stroke="#192D54" stroke-width="4.58333" stroke-miterlimit="8" fill="#92D050" fill-rule="evenodd"/><path d="M3928.5 958.5 4071.5 958.5 4071.5 932.5 4123.5 984.5 4071.5 1036.5 4071.5 1010.5 3928.5 1010.5Z" stroke="#192D54" stroke-width="4.58333" stroke-miterlimit="8" fill="#7030A0" fill-rule="evenodd"/><path d="M3739.5 556.5 4312.66 757.156" stroke="#4874CB" stroke-width="4.58333" stroke-miterlimit="8" fill="none" fill-rule="evenodd"/><path d="M3525.5 771.5 4287.03 801.46" stroke="#4874CB" stroke-width="4.58333" stroke-miterlimit="8" fill="none" fill-rule="evenodd"/><path d="M0 0 582.379 115.006" stroke="#4874CB" stroke-width="4.58333" stroke-miterlimit="8" fill="none" fill-rule="evenodd" transform="matrix(1 0 0 -1 3740.5 938.506)"/><path d="M0 0 762.293 299.883" stroke="#4874CB" stroke-width="4.58333" stroke-miterlimit="8" fill="none" fill-rule="evenodd" transform="matrix(1 0 0 -1 3524.5 1160.38)"/><rect x="4154.5" y="737.782" width="38.7168" height="732.718" fill="#DFE3F1"/><path d="M4193.22 737.782 4584.5 346.5 4584.5 1079.22 4193.22 1470.5Z" fill="#B3B6C2" fill-rule="evenodd"/><path d="M4154.5 737.782 4545.78 346.5 4584.5 346.5 4193.22 737.782Z" fill="#E5E8F4" fill-rule="evenodd"/><path d="M4154.5 737.782 4545.78 346.5 4584.5 346.5 4584.5 1079.22 4193.22 1470.5 4154.5 1470.5ZM4154.5 737.782 4193.22 737.782 4584.5 346.5M4193.22 737.782 4193.22 1470.5" stroke="#000000" stroke-width="4.58333" stroke-miterlimit="8" fill="none" fill-rule="evenodd"/><rect x="4286" y="800.232" width="1.76758" height="59.7678" fill="#00B0F0"/><path d="M4287.77 800.232 4322 766 4322 825.768 4287.77 860Z" fill="#008DC1" fill-rule="evenodd"/><path d="M4286 800.232 4320.23 766 4322 766 4287.77 800.232Z" fill="#32BFF3" fill-rule="evenodd"/></g></svg>